<svg width="100" height="100" viewBox="0 0 100 100" fill="none" xmlns="http://www.w3.org/2000/svg">
<g clip-path="url(#clip0)">
<path fill-rule="evenodd" clip-rule="evenodd" d="M5 0C3.67392 0 2.40215 0.526784 1.46447 1.46447C0.526784 2.40215 0 3.67392 0 5L0 30H65V0H5Z" fill="#1292EE"/>
<path fill-rule="evenodd" clip-rule="evenodd" d="M95 0H70V65H100V5C100 3.67392 99.4732 2.40215 98.5355 1.46447C97.5979 0.526784 96.3261 0 95 0V0Z" fill="#EB5757"/>
<path fill-rule="evenodd" clip-rule="evenodd" d="M0 35V95C0 96.3261 0.526784 97.5979 1.46447 98.5355C2.40215 99.4732 3.67392 100 5 100H30V35H0Z" fill="#59B3F3"/>
<path fill-rule="evenodd" clip-rule="evenodd" d="M35 70V100H95C96.3261 100 97.5979 99.4732 98.5355 98.5355C99.4732 97.5979 100 96.3261 100 95V70H35Z" fill="#FFB940"/>
</g>
<defs>
<clipPath id="clip0">
<rect width="100" height="100" fill="white"/>
</clipPath>
</defs>
</svg>
