<svg height="512" width="512" xmlns="http://www.w3.org/2000/svg"><circle cx="190.782" cy="190.784" fill="#665e66" r="183.28"/><path d="M320.38 300.131c33.208-33.208 51.023-75.983 53.409-119.468 2.753 50.224-15.037 101.361-53.409 139.72-71.579 71.579-187.622 71.579-259.188 0C22.82 282.023 5.03 230.886 7.783 180.662c2.385 43.486 20.201 86.261 53.409 119.468 71.567 71.58 187.609 71.58 259.188.001z" fill="#544f57"/><circle cx="190.78" cy="190.782" fill="#f9f6f9" r="134.758"/><path d="M464.731 381.065c48.181 48.181 47.63 85.09 24.526 108.194s-60.013 23.655-108.194-24.526-68.51-105.969-45.405-129.074c23.103-23.104 80.892-2.775 129.073 45.406z" fill="#d09080"/><path d="M489.259 489.266c-23.103 23.103-60.018 23.646-108.197-24.533S312.557 358.77 335.66 335.667c-9.197 9.197 22.404 55.706 70.583 103.885 48.179 48.18 73.819 58.912 83.016 49.714z" fill="#c67d66"/><path d="M351.3 276.039l-75.263 75.263c-14.806 14.806-14.806 38.813 0 53.619 14.806 14.806 38.813 14.806 53.619 0l75.263-75.263c14.806-14.806 14.806-38.813 0-53.619-14.806-14.806-38.812-14.806-53.619 0z" fill="#d09080"/><path d="M338.143 380.733a37.739 37.739 0 0 0 26.809-11.108l-35.297 35.297c-7.402 7.402-17.1 11.108-26.809 11.108s-19.407-3.706-26.809-11.108c-14.804-14.804-14.804-38.815 0-53.618l35.297-35.297c-14.814 14.814-14.803 38.815 0 53.618 7.401 7.402 17.1 11.108 26.809 11.108z" fill="#c67d66"/><path d="M220.624 146.912v-5.841c0-10.813-8.767-19.581-19.581-19.581h-20.526c-10.813 0-19.574 8.768-19.574 19.581v5.841" fill="#665e66"/><path d="M199.763 121.491c-10.813 0-19.574 8.768-19.574 19.581v5.841h-19.246v-5.841c0-10.813 8.761-19.581 19.574-19.581z" fill="#544f57"/><path d="M196.9 268.1c-4.08.067-8.159.067-12.239 0-25.135-.415-45.458-20.577-46.141-45.706a675.095 675.095 0 0 1 0-36.668c.683-25.129 21.006-45.291 46.141-45.706 4.08-.067 8.159-.067 12.239 0 25.135.415 45.458 20.577 46.141 45.706a675.095 675.095 0 0 1 0 36.668c-.683 25.129-21.006 45.291-46.141 45.706z" fill="#dd636e"/><path d="M187.947 268.142a257.304 257.304 0 0 1-3.287-.039c-25.138-.418-45.458-20.578-46.14-45.709a668.943 668.943 0 0 1 0-36.665c.682-25.132 21.002-45.291 46.14-45.709 1.1-.019 2.2-.032 3.3-.039-16.68 7.925-28.329 24.727-28.863 44.346a721.595 721.595 0 0 0 0 39.476c.535 19.612 12.177 36.414 28.85 44.339z" fill="#da4a54"/><path d="M333.042 190.785c0-37.998-14.798-73.723-41.669-100.593a143.086 143.086 0 0 0-5.669-5.364 7.501 7.501 0 0 0-10.008 11.174 127.12 127.12 0 0 1 5.07 4.796c24.038 24.038 37.276 55.996 37.276 89.987s-13.238 65.949-37.275 89.986c-24.813 24.808-57.395 37.21-89.987 37.208-32.585-.003-65.18-12.405-89.986-37.207-49.61-49.619-49.61-130.355-.001-179.973 40.213-40.205 102.864-48.828 152.358-20.968a7.498 7.498 0 0 0 10.214-2.857 7.499 7.499 0 0 0-2.857-10.214c-26.524-14.931-57.841-20.98-88.181-17.034-31.333 4.075-59.737 18.068-82.141 40.467-55.456 55.466-55.456 145.717.002 201.185 27.733 27.729 64.163 41.593 100.592 41.592 36.43 0 72.859-13.864 100.593-41.593 26.871-26.87 41.669-62.595 41.669-100.592z"/><path d="M511.128 443.342c-3.481-21.056-17.308-43.793-41.095-67.581-17.943-17.943-38.133-32.911-57.789-42.973 15.647-17.817 14.979-45.05-2.022-62.052-8.577-8.578-19.982-13.302-32.113-13.302-3.006 0-5.966.292-8.851.859 11.625-30.628 15.126-63.62 10.095-96.509-6.17-40.336-24.73-76.956-53.674-105.9C289.647 19.85 241.738.006 190.779.006S91.912 19.85 55.878 55.884C19.845 91.917 0 139.827 0 190.785s19.845 98.868 55.878 134.901c28.944 28.944 65.563 47.504 105.9 53.674a193.572 193.572 0 0 0 29.281 2.237c23.01 0 45.704-4.173 67.234-12.346a45.894 45.894 0 0 0-.861 8.862c0 12.13 4.724 23.535 13.302 32.113 8.854 8.854 20.483 13.28 32.113 13.28 10.698 0 21.39-3.756 29.927-11.248 7.994 15.649 19.047 31.564 32.396 46.555a7.481 7.481 0 0 0 5.604 2.512 7.5 7.5 0 0 0 5.598-12.488c-13.748-15.44-24.846-31.825-32.342-47.681l57.122-57.122c19.571 9.27 40.088 24.146 58.276 42.334 21.527 21.527 33.943 41.52 36.902 59.421 2.429 14.69-1.734 27.533-12.37 38.169-9.752 9.744-21.383 14.062-34.569 12.834-15.788-1.469-33.434-10.691-52.447-27.411a7.5 7.5 0 1 0-9.905 11.265c21.442 18.855 41.953 29.313 60.962 31.082a60.79 60.79 0 0 0 5.675.266c15.37 0 29.411-5.96 40.888-17.427 14.053-14.053 19.781-31.767 16.564-51.225zm-347.082-78.81c-37.156-5.683-70.893-22.784-97.562-49.453C33.284 281.879 15 237.737 15 190.785S33.284 99.691 66.485 66.491s77.343-51.485 124.294-51.485c46.952 0 91.094 18.284 124.294 51.485 26.669 26.669 43.77 60.405 49.453 97.562 5.495 35.924-.048 71.975-16.015 104.367a46.026 46.026 0 0 0-2.514 2.317L270.734 346a46.513 46.513 0 0 0-2.32 2.517c-32.392 15.967-68.443 21.51-104.368 16.015zm117.294 35.086c-5.745-5.745-8.908-13.382-8.908-21.506s3.164-15.761 8.908-21.506l75.263-75.263c5.745-5.745 13.382-8.908 21.506-8.908s15.762 3.164 21.506 8.908c11.858 11.858 11.858 31.154 0 43.013l-5.253 5.253c-.036.034-.07.071-.106.106l-64.538 64.538c-.039.039-.079.077-.117.117l-5.249 5.249c-11.858 11.858-31.154 11.857-43.012-.001z"/><path d="M257.84 113.354a7.5 7.5 0 0 0-7.5 7.5c0 12.185-3.672 23.841-10.458 33.688a54.459 54.459 0 0 0-11.759-11.657v-1.814c0-12.33-8.286-22.754-19.581-26.016v-3.19a7.5 7.5 0 0 0-15 0v2.125h-5.526v-2.125a7.5 7.5 0 0 0-15 0v3.19c-11.291 3.262-19.574 13.686-19.574 26.015v1.81a54.46 54.46 0 0 0-11.762 11.659c-6.782-9.849-10.451-21.504-10.451-33.686a7.5 7.5 0 0 0-15 0c0 17.853 6.286 34.806 17.767 48.277a54.762 54.762 0 0 0-2.974 16.39c-.003.106-.004.213-.006.319-12.21 3.187-23.534 7.344-33.726 12.394a7.5 7.5 0 0 0 6.66 13.44c8.159-4.043 17.159-7.465 26.84-10.224-.014 3.732-.006 7.465.04 11.192-14.739 15.451-22.83 35.575-22.83 57.053a7.5 7.5 0 0 0 15 0c0-12.564 3.385-24.563 9.714-35.007 5.939 23.318 26.776 40.498 51.823 40.912a380.81 380.81 0 0 0 12.487 0c25.046-.414 45.884-17.593 51.823-40.91 6.329 10.443 9.713 22.441 9.713 35.005a7.5 7.5 0 0 0 15 0c0-21.477-8.091-41.601-22.829-57.051.047-3.728.055-7.46.04-11.193 9.681 2.759 18.679 6.181 26.838 10.224a7.5 7.5 0 0 0 10.05-3.39 7.5 7.5 0 0 0-3.39-10.05c-10.192-5.05-21.516-9.207-33.725-12.394-.003-.106-.004-.213-.006-.319a54.762 54.762 0 0 0-2.974-16.39c11.487-13.468 17.775-30.421 17.775-48.278a7.498 7.498 0 0 0-7.499-7.499zm-74.704 80.51c-13.981-.182-27.15-4.671-36.739-12.401 2.66-19.046 18.737-33.62 38.388-33.944a361.849 361.849 0 0 1 11.992 0c19.651.324 35.728 14.898 38.387 33.943-9.589 7.731-22.758 12.22-36.735 12.402-5.073.063-10.22.063-15.293 0zm-2.619-64.873h20.526c4.301 0 8.074 2.266 10.215 5.66a54.73 54.73 0 0 0-14.234-2.131 382.134 382.134 0 0 0-12.486 0 54.734 54.734 0 0 0-14.229 2.129c2.139-3.393 5.91-5.658 10.208-5.658zm-34.5 93.198a669.135 669.135 0 0 1-.212-23.082c10.81 6.116 23.723 9.581 37.141 9.755l.335.002v51.675c-20.459-1.103-36.701-17.665-37.264-38.35zm52.264 38.35v-51.675c.112-.001.226 0 .338-.002 13.415-.174 26.326-3.639 37.137-9.755a669.217 669.217 0 0 1-.212 23.083c-.562 20.684-16.804 37.245-37.263 38.349z"/></svg>