<svg xmlns="http://www.w3.org/2000/svg" height="512" viewBox="0 0 60 60" width="512"><rect fill="#5da0ff" height="58" rx="3" width="58" x="1" y="1" data-original="#5DA0FF"/><rect fill="#fff" height="50" rx="1" transform="rotate(90 30 32)" width="46" x="7" y="7" data-original="#FFF"/><rect fill="#e4f1ff" height="16" rx="2" width="18" x="33" y="14" data-original="#E4F1FF"/><rect fill="#e4f1ff" height="16" rx="2" width="18" x="9" y="14" data-original="#E4F1FF"/><rect fill="#e4f1ff" height="16" rx="2" width="18" x="33" y="34" data-original="#E4F1FF"/><rect fill="#e4f1ff" height="16" rx="2" width="18" x="9" y="34" data-original="#E4F1FF"/><path d="M23 30v-1a5 5 0 0 0-10 0v1z" fill="#b5cedd" data-original="#B5CEDD"/><circle cx="18" cy="21" fill="#b5cedd" r="3" data-original="#B5CEDD"/><path d="M22 42a4.025 4.025 0 0 1-1.17 2.83L17 43l1-5a4 4 0 0 1 4 4z" fill="#fde36e" data-original="#FDE36E"/><path d="M20.83 44.83A4 4 0 1 1 18 38v4z" fill="#9e9ceb" data-original="#9E9CEB"/><g fill="#373737"><path d="M4 10v44a2 2 0 0 0 2 2h48a2 2 0 0 0 2-2V10a2 2 0 0 0-2-2H6a2 2 0 0 0-2 2zm2 0h48v44H6z" data-original="#373737" class="active-path" data-old_color="#373737" fill="#000"/><path d="M49 13H35a3 3 0 0 0-3 3v12a3 3 0 0 0 3 3h14a3 3 0 0 0 3-3V16a3 3 0 0 0-3-3zm1 15a1 1 0 0 1-1 1H35a1 1 0 0 1-1-1V16a1 1 0 0 1 1-1h14a1 1 0 0 1 1 1zM25 13H11a3 3 0 0 0-3 3v12a3 3 0 0 0 3 3h14a3 3 0 0 0 3-3V16a3 3 0 0 0-3-3zm-9 8a2 2 0 1 1 2 2 2 2 0 0 1-2-2zm2 4a4 4 0 0 1 4 4h-8a4 4 0 0 1 4-4zm8 3a1 1 0 0 1-1 1h-1a6 6 0 0 0-3.107-5.253 4 4 0 1 0-5.786 0A6 6 0 0 0 12 29h-1a1 1 0 0 1-1-1V16a1 1 0 0 1 1-1h14a1 1 0 0 1 1 1zm23 5H35a3 3 0 0 0-3 3v12a3 3 0 0 0 3 3h14a3 3 0 0 0 3-3V36a3 3 0 0 0-3-3zm1 15a1 1 0 0 1-1 1H35a1 1 0 0 1-1-1V36a1 1 0 0 1 1-1h14a1 1 0 0 1 1 1zM25 33H11a3 3 0 0 0-3 3v12a3 3 0 0 0 3 3h14a3 3 0 0 0 3-3V36a3 3 0 0 0-3-3zm1 15a1 1 0 0 1-1 1H11a1 1 0 0 1-1-1V36a1 1 0 0 1 1-1h14a1 1 0 0 1 1 1z" data-original="#373737" class="active-path" data-old_color="#373737" fill="#000"/><path d="M18 37a5 5 0 1 0 3.5 8.562c.011-.01.026-.014.037-.025s.015-.026.025-.037A4.994 4.994 0 0 0 18 37zm3 5a2.951 2.951 0 0 1-.3 1.285l-1.7-1.7v-2.4A3 3 0 0 1 21 42zm-6 0a3 3 0 0 1 2-2.816V42a1 1 0 0 0 .293.707l1.992 1.993A2.951 2.951 0 0 1 18 45a3 3 0 0 1-3-3z" data-original="#373737" class="active-path" data-old_color="#373737" fill="#000"/><path d="M56 0H4a4 4 0 0 0-4 4v5a1 1 0 0 0 2 0V4a2 2 0 0 1 2-2h52a2 2 0 0 1 2 2v52a2 2 0 0 1-2 2H4a2 2 0 0 1-2-2V13a1 1 0 0 0-2 0v43a4 4 0 0 0 4 4h52a4 4 0 0 0 4-4V4a4 4 0 0 0-4-4z" data-original="#373737" class="active-path" data-old_color="#373737" fill="#000"/><path d="M7 6a1 1 0 0 0 0-2H6a1 1 0 0 0 0 2zm5 0a1 1 0 0 0 0-2h-1a1 1 0 0 0 0 2zm5 0a1 1 0 0 0 0-2h-1a1 1 0 0 0 0 2zm37 0a1 1 0 0 0 0-2h-6a1 1 0 0 0 0 2zM40.383 18.076a1 1 0 0 0-1.09.217l-1 1A1 1 0 0 0 39 21v4a1 1 0 0 0 2 0v-6a1 1 0 0 0-.617-.924zm5 0a1 1 0 0 0-1.09.217l-1 1A1 1 0 0 0 44 21v4a1 1 0 0 0 2 0v-6a1 1 0 0 0-.617-.924zM45 41h-2v-2a1 1 0 0 0-2 0v2h-2a1 1 0 0 0 0 2h2v2a1 1 0 0 0 2 0v-2h2a1 1 0 0 0 0-2z" data-original="#373737" class="active-path" data-old_color="#373737" fill="#000"/></g></svg>