<svg height="512" width="512" xmlns="http://www.w3.org/2000/svg"><path d="M171 149.999v-100c0-11-9-20-20-20s-20 9-20 20v-20c0-11-9-20-20-20s-20 9-20 20v20c0-11-9-20-20-20s-20 9-20 20v20c0-11-9-20-20-20s-20 9-20 20v107.8c0 40.148 17.649 66.205 20 72.2V342h120v-92.001c24.6-12.2 40-37.4 40-64.8v-35.2zM488.6 273.2L483 262v-92.001H363V262c-24.6 12.2-40 37.4-40 64.8V362h20v100c0 11 9 20 20 20s20-9 20-20v20c0 11 9 20 20 20s20-9 20-20v-20c0 11 9 20 20 20s20-9 20-20v-20c0 11 9 20 20 20s20-9 20-20V334.2c0-21.2-5-42-14.4-61z" fill="#fce8d0"/><path d="M483 89.999h-20c11 0 20-9 20-20s-9-20-20-20h-20c11 0 20-9 20-20s-9-20-20-20H335.2c-21.2 0-42 5-61 14.4l-11.2 5.6h-92v120h92c12.2 24.6 37.4 40 64.8 40H363v-20h100c11 0 20-9 20-20s-9-20-20-20h20c11 0 20-9 20-20s-9-20-20-20zM251 362c-12.2-24.6-37.4-40-64.8-40H151v20H51c-11 0-20 9-20 20s9 20 20 20H31c-11 0-20 9-20 20s9 20 20 20h20c-11 0-20 9-20 20s9 20 20 20h20c-11 0-20 9-20 20s9 20 20 20h127.8c21.2 0 42-5 61-14.4L271 482h72V362h-92z" fill="#c86e59"/><path d="M512 110c0-13.815-9.39-25.473-22.121-28.943A29.805 29.805 0 0 0 492 70c0-13.815-9.39-25.473-22.121-28.943A29.805 29.805 0 0 0 472 30c0-16.542-13.458-30-30-30H334.2c-22.395 0-45.021 5.338-65.473 15.456L259.639 20H150a29.83 29.83 0 0 0-11.057 2.121C135.473 9.39 123.815 0 110 0S84.527 9.39 81.057 22.121A29.83 29.83 0 0 0 70 20c-13.815 0-25.473 9.39-28.943 22.121A29.83 29.83 0 0 0 30 40C13.458 40 0 53.458 0 70v107.8c0 42.151 18.136 69.698 20 74.561V362c0 3.904.758 7.633 2.121 11.057C9.39 376.527 0 388.185 0 402s9.39 25.473 22.121 28.943A29.83 29.83 0 0 0 20 442c0 13.815 9.39 25.473 22.121 28.943A29.83 29.83 0 0 0 40 482c0 16.542 13.458 30 30 30h24.099c5.523 0 10-4.477 10-10s-4.477-10-10-10H70c-5.514 0-10-4.486-10-10s4.486-10 10-10h20c5.523 0 10-4.477 10-10s-4.477-10-10-10H50c-5.514 0-10-4.486-10-10s4.486-10 10-10h40c5.523 0 10-4.477 10-10s-4.477-10-10-10H30c-5.514 0-10-4.486-10-10s4.486-10 10-10h60c5.523 0 10-4.477 10-10s-4.477-10-10-10H50c-5.514 0-10-4.486-10-10s4.486-10 10-10h100c5.523 0 10-4.477 10-10v-10h25.2c23.908 0 45.305 13.198 55.841 34.443A10.002 10.002 0 0 0 250 372h82v90c0 3.506.61 6.87 1.72 10H270a9.987 9.987 0 0 0-4.472 1.056l-11.163 5.581C236.695 487.379 217.135 492 197.8 492h-13.898c-5.523 0-10 4.477-10 10s4.477 10 10 10H197.8c22.395 0 45.021-5.338 65.472-15.456l9.089-4.544H362a29.83 29.83 0 0 0 11.057-2.121C376.528 502.61 388.185 512 402 512s25.473-9.39 28.943-22.121A29.833 29.833 0 0 0 442 492c13.815 0 25.473-9.39 28.943-22.121A29.833 29.833 0 0 0 482 472c16.542 0 30-13.458 30-30V322c0-1.52-.349-2.954-.955-4.244-1.948-16.892-6.858-33.581-14.501-49.028L492 259.64V150a29.83 29.83 0 0 0-2.121-11.057C502.611 135.473 512 123.816 512 110zM140 332H50c-3.506 0-6.87.61-10 1.72V250a9.993 9.993 0 0 0-1.056-4.472C36.671 239.722 20 215.209 20 177.8V70c0-5.514 4.486-10 10-10s10 4.486 10 10v20c0 5.523 4.477 10 10 10s10-4.477 10-10V50c0-5.514 4.486-10 10-10s10 4.486 10 10v40c0 5.523 4.477 10 10 10s10-4.477 10-10V30c0-5.514 4.486-10 10-10s10 4.486 10 10v60c0 5.523 4.477 10 10 10s10-4.477 10-10V50c0-5.514 4.486-10 10-10s10 4.486 10 10v100c0 5.523 4.477 10 10 10h10v25.2c0 23.545-13.52 45.464-34.443 55.841A10.002 10.002 0 0 0 140 250zm45.2-20H160v-56.064c24.826-14.754 40-41.313 40-70.736V160h56.065c14.753 24.826 41.311 40 70.735 40H352v56.064c-24.826 14.754-40 41.312-40 70.736V352h-56.064c-14.754-24.825-41.312-40-70.736-40zM492 442c0 5.514-4.486 10-10 10s-10-4.486-10-10v-20c0-5.523-4.478-10-10-10s-10 4.477-10 10v40c0 5.514-4.486 10-10 10s-10-4.486-10-10v-40c0-5.523-4.478-10-10-10s-10 4.477-10 10v60c0 5.514-4.486 10-10 10s-10-4.486-10-10v-60c0-5.523-4.478-10-10-10s-10 4.477-10 10v40c0 5.514-4.486 10-10 10s-10-4.486-10-10V362c0-5.523-4.478-10-10-10h-10v-25.2c0-23.908 13.198-45.305 34.443-55.841A10 10 0 0 0 372 262v-82h90c3.506 0 6.87-.61 10-1.72V262c0 1.552.361 3.083 1.056 4.472l5.581 11.163C487.379 295.305 492 314.865 492 334.2zm-10-322h-60c-5.522 0-10 4.477-10 10s4.478 10 10 10h40c5.514 0 10 4.486 10 10s-4.486 10-10 10H362c-5.522 0-10 4.477-10 10v10h-25.2c-23.546 0-45.465-13.52-55.841-34.443A10.001 10.001 0 0 0 262 140h-82V50c0-3.506-.61-6.87-1.72-10H262a9.994 9.994 0 0 0 4.473-1.056C272.272 36.675 296.79 20 334.2 20H442c5.514 0 10 4.486 10 10s-4.486 10-10 10h-20c-5.522 0-10 4.477-10 10s4.478 10 10 10h40c5.514 0 10 4.486 10 10s-4.486 10-10 10h-40c-5.522 0-10 4.477-10 10s4.478 10 10 10h60c5.514 0 10 4.486 10 10s-4.486 10-10 10z"/><circle cx="140" cy="499" r="10"/></svg>