<svg id="Capa_1" enable-background="new 0 0 512 512" height="512" viewBox="0 0 512 512" width="512" xmlns="http://www.w3.org/2000/svg"><g><g><g><path d="m171 149.999v-100c0-11-9-20-20-20s-20 9-20 20v-20c0-11-9-20-20-20s-20 9-20 20v20c0-11-9-20-20-20s-20 9-20 20v20c0-11-9-20-20-20s-20 9-20 20v107.8c0 40.148 17.649 66.205 20 72.2v92.001h120v-92.001c24.6-12.2 40-37.4 40-64.8v-35.2z" fill="#fce8d0"/></g><g><path d="m488.6 273.2-5.6-11.2v-92.001h-120v92.001c-24.6 12.2-40 37.4-40 64.8v35.2h20v100c0 11 9 20 20 20s20-9 20-20v20c0 11 9 20 20 20s20-9 20-20v-20c0 11 9 20 20 20s20-9 20-20v-20c0 11 9 20 20 20s20-9 20-20v-107.8c0-21.2-5-42-14.4-61z" fill="#fce8d0"/></g><g><path d="m483 89.999h-20c11 0 20-9 20-20s-9-20-20-20h-20c11 0 20-9 20-20s-9-20-20-20h-107.8c-21.2 0-42 5-61 14.4l-11.2 5.6h-92v120h92c12.2 24.6 37.4 40 64.8 40h35.2v-20h100c11 0 20-9 20-20s-9-20-20-20h20c11 0 20-9 20-20s-9-20-20-20z" fill="#c86e59"/></g><g><path d="m251 362c-12.2-24.6-37.4-40-64.8-40h-35.2v20h-100c-11 0-20 9-20 20s9 20 20 20h-20c-11 0-20 9-20 20s9 20 20 20h20c-11 0-20 9-20 20s9 20 20 20h20c-11 0-20 9-20 20s9 20 20 20h127.8c21.2 0 42-5 61-14.4l11.2-5.6h72v-120c-9.156 0-83.073 0-92 0z" fill="#c86e59"/></g></g><g><path d="m512 110c0-13.815-9.39-25.473-22.121-28.943 1.364-3.424 2.121-7.152 2.121-11.057 0-13.815-9.39-25.473-22.121-28.943 1.364-3.424 2.121-7.152 2.121-11.057 0-16.542-13.458-30-30-30h-107.8c-22.395 0-45.021 5.338-65.473 15.456l-9.088 4.544h-109.639c-3.904 0-7.633.758-11.057 2.121-3.47-12.731-15.128-22.121-28.943-22.121s-25.473 9.39-28.943 22.121c-3.424-1.363-7.153-2.121-11.057-2.121-13.815 0-25.473 9.39-28.943 22.121-3.424-1.363-7.153-2.121-11.057-2.121-16.542 0-30 13.458-30 30v107.8c0 42.151 18.136 69.698 20 74.561v109.639c0 3.904.758 7.633 2.121 11.057-12.731 3.47-22.121 15.128-22.121 28.943s9.39 25.473 22.121 28.943c-1.363 3.424-2.121 7.153-2.121 11.057 0 13.815 9.39 25.473 22.121 28.943-1.363 3.424-2.121 7.153-2.121 11.057 0 16.542 13.458 30 30 30h24.099c5.523 0 10-4.477 10-10s-4.477-10-10-10h-24.099c-5.514 0-10-4.486-10-10s4.486-10 10-10h20c5.523 0 10-4.477 10-10s-4.477-10-10-10c-13.99 0-26.01 0-40 0-5.514 0-10-4.486-10-10s4.486-10 10-10h40c5.523 0 10-4.477 10-10s-4.477-10-10-10c-9.1 0-44.228 0-60 0-5.514 0-10-4.486-10-10s4.486-10 10-10h60c5.523 0 10-4.477 10-10s-4.477-10-10-10h-40c-5.514 0-10-4.486-10-10s4.486-10 10-10h100c5.523 0 10-4.477 10-10v-10h25.2c23.908 0 45.305 13.198 55.841 34.443 1.689 3.404 5.16 5.557 8.959 5.557h82v90c0 3.506.61 6.87 1.72 10h-63.72c-1.553 0-3.084.361-4.472 1.056l-11.163 5.581c-17.67 8.742-37.23 13.363-56.565 13.363h-13.898c-5.523 0-10 4.477-10 10s4.477 10 10 10h13.898c22.395 0 45.021-5.338 65.472-15.456l9.089-4.544h89.639c3.904 0 7.633-.758 11.057-2.121 3.471 12.731 15.128 22.121 28.943 22.121s25.473-9.39 28.943-22.121c3.425 1.363 7.153 2.121 11.057 2.121 13.815 0 25.473-9.39 28.943-22.121 3.425 1.363 7.153 2.121 11.057 2.121 16.542 0 30-13.458 30-30v-120c0-1.52-.349-2.954-.955-4.244-1.948-16.892-6.858-33.581-14.501-49.028l-4.544-9.088v-109.64c0-3.904-.758-7.633-2.121-11.057 12.732-3.47 22.121-15.127 22.121-28.943zm-372 222h-90c-3.506 0-6.87.61-10 1.72v-83.72c0-1.552-.361-3.083-1.056-4.472-2.273-5.806-18.944-30.319-18.944-67.728v-107.8c0-5.514 4.486-10 10-10s10 4.486 10 10v20c0 5.523 4.477 10 10 10s10-4.477 10-10v-40c0-5.514 4.486-10 10-10s10 4.486 10 10v40c0 5.523 4.477 10 10 10s10-4.477 10-10c0-9.1 0-44.228 0-60 0-5.514 4.486-10 10-10s10 4.486 10 10v60c0 5.523 4.477 10 10 10s10-4.477 10-10v-40c0-5.514 4.486-10 10-10s10 4.486 10 10v100c0 5.523 4.477 10 10 10h10v25.2c0 23.545-13.52 45.464-34.443 55.841-3.404 1.689-5.557 5.16-5.557 8.959zm45.2-20h-25.2v-56.064c24.826-14.754 40-41.313 40-70.736v-25.2h56.065c14.753 24.826 41.311 40 70.735 40h25.2v56.064c-24.826 14.754-40 41.312-40 70.736v25.2h-56.064c-14.754-24.825-41.312-40-70.736-40zm306.8 130c0 5.514-4.486 10-10 10s-10-4.486-10-10v-20c0-5.523-4.478-10-10-10s-10 4.477-10 10v40c0 5.514-4.486 10-10 10s-10-4.486-10-10v-40c0-5.523-4.478-10-10-10s-10 4.477-10 10v60c0 5.514-4.486 10-10 10s-10-4.486-10-10v-60c0-5.523-4.478-10-10-10s-10 4.477-10 10v40c0 5.514-4.486 10-10 10s-10-4.486-10-10v-100c0-5.523-4.478-10-10-10h-10v-25.2c0-23.908 13.198-45.305 34.443-55.841 3.404-1.688 5.557-5.159 5.557-8.959v-82h90c3.506 0 6.87-.61 10-1.72v83.72c0 1.552.361 3.083 1.056 4.472l5.581 11.163c8.742 17.67 13.363 37.23 13.363 56.565zm-10-322h-60c-5.522 0-10 4.477-10 10s4.478 10 10 10h40c5.514 0 10 4.486 10 10s-4.486 10-10 10h-100c-5.522 0-10 4.477-10 10v10h-25.2c-23.546 0-45.465-13.52-55.841-34.443-1.688-3.403-5.159-5.557-8.959-5.557h-82v-90c0-3.506-.61-6.87-1.72-10h83.72c1.553 0 3.084-.361 4.473-1.056 5.799-2.269 30.317-18.944 67.727-18.944h107.8c5.514 0 10 4.486 10 10s-4.486 10-10 10h-20c-5.522 0-10 4.477-10 10s4.478 10 10 10h40c5.514 0 10 4.486 10 10s-4.486 10-10 10h-40c-5.522 0-10 4.477-10 10s4.478 10 10 10h60c5.514 0 10 4.486 10 10s-4.486 10-10 10z"/><circle cx="140" cy="499" r="10"/></g></g></svg>