<svg xmlns="http://www.w3.org/2000/svg" viewBox="0 0 512 512"><path d="M349.867 247.467h102.4v68.267h-102.4zm-145.067 0h102.4v68.267H204.8zm-145.067 0h102.4v68.267h-102.4zm0-119.467h392.533v68.267H59.733z" fill="#78b9eb"/><g fill="#231f20"><path d="M0 0v512h512V0H0zm494.933 17.067v51.2H17.067v-51.2h477.866zM17.067 494.933v-409.6h477.867v409.6H17.067z"/><path d="M34.133 34.133H51.2V51.2H34.133zm34.134 0h17.067V51.2H68.267zm34.133 0h17.067V51.2H102.4zm358.4 0h17.067V51.2H460.8zM51.2 204.8h409.6v-85.333H51.2V204.8zm17.067-68.267h375.467v51.2H68.267v-51.2zm128 187.734h119.467v-85.333H196.267v85.333zM213.333 256h85.333v51.2h-85.333V256zM51.2 324.267h119.467v-85.333H51.2v85.333zM68.267 256H153.6v51.2H68.267V256zm273.066 68.267H460.8v-85.333H341.333v85.333zM358.4 256h85.333v51.2H358.4V256zM51.2 358.4h17.067v17.067H51.2zm34.133 0h85.333v17.067H85.333zM51.2 392.533h119.467V409.6H51.2zm0 34.134h119.467v17.067H51.2zM196.267 358.4h17.067v17.067h-17.067zm34.133 0h85.333v17.067H230.4zm-34.133 34.133h119.467V409.6H196.267zm0 34.134h119.467v17.067H196.267zM341.333 358.4H358.4v17.067h-17.067zm34.134 0H460.8v17.067h-85.333zm-34.134 34.133H460.8V409.6H341.333zm0 34.134H460.8v17.067H341.333z"/></g></svg>