<?xml version="1.0" encoding="iso-8859-1"?>
<!-- Generator: Adobe Illustrator 19.0.0, SVG Export Plug-In . SVG Version: 6.00 Build 0)  -->
<svg version="1.1" id="Capa_1" xmlns="http://www.w3.org/2000/svg" xmlns:xlink="http://www.w3.org/1999/xlink" x="0px" y="0px"
	 viewBox="0 0 512 512" style="enable-background:new 0 0 512 512;" xml:space="preserve">
<g>
	<rect x="349.867" y="247.467" style="fill:#78B9EB;" width="102.4" height="68.267"/>
	<rect x="204.8" y="247.467" style="fill:#78B9EB;" width="102.4" height="68.267"/>
	<rect x="59.733" y="247.467" style="fill:#78B9EB;" width="102.4" height="68.267"/>
	<rect x="59.733" y="128" style="fill:#78B9EB;" width="392.533" height="68.267"/>
</g>
<g>
	<path style="fill:#231F20;" d="M0,0v512h512V0H0z M494.933,17.067v51.2H17.067v-51.2H494.933z M17.067,494.933v-409.6h477.867
		v409.6H17.067z"/>
	<rect x="34.133" y="34.133" style="fill:#231F20;" width="17.067" height="17.067"/>
	<rect x="68.267" y="34.133" style="fill:#231F20;" width="17.067" height="17.067"/>
	<rect x="102.4" y="34.133" style="fill:#231F20;" width="17.067" height="17.067"/>
	<rect x="460.8" y="34.133" style="fill:#231F20;" width="17.067" height="17.067"/>
	<path style="fill:#231F20;" d="M51.2,204.8h409.6v-85.333H51.2V204.8z M68.267,136.533h375.467v51.2H68.267V136.533z"/>
	<path style="fill:#231F20;" d="M196.267,324.267h119.467v-85.333H196.267V324.267z M213.333,256h85.333v51.2h-85.333V256z"/>
	<path style="fill:#231F20;" d="M51.2,324.267h119.467v-85.333H51.2V324.267z M68.267,256H153.6v51.2H68.267V256z"/>
	<path style="fill:#231F20;" d="M341.333,324.267H460.8v-85.333H341.333V324.267z M358.4,256h85.333v51.2H358.4V256z"/>
	<rect x="51.2" y="358.4" style="fill:#231F20;" width="17.067" height="17.067"/>
	<rect x="85.333" y="358.4" style="fill:#231F20;" width="85.333" height="17.067"/>
	<rect x="51.2" y="392.533" style="fill:#231F20;" width="119.467" height="17.067"/>
	<rect x="51.2" y="426.667" style="fill:#231F20;" width="119.467" height="17.067"/>
	<rect x="196.267" y="358.4" style="fill:#231F20;" width="17.067" height="17.067"/>
	<rect x="230.4" y="358.4" style="fill:#231F20;" width="85.333" height="17.067"/>
	<rect x="196.267" y="392.533" style="fill:#231F20;" width="119.467" height="17.067"/>
	<rect x="196.267" y="426.667" style="fill:#231F20;" width="119.467" height="17.067"/>
	<rect x="341.333" y="358.4" style="fill:#231F20;" width="17.067" height="17.067"/>
	<rect x="375.467" y="358.4" style="fill:#231F20;" width="85.333" height="17.067"/>
	<rect x="341.333" y="392.533" style="fill:#231F20;" width="119.467" height="17.067"/>
	<rect x="341.333" y="426.667" style="fill:#231F20;" width="119.467" height="17.067"/>
</g>
<g>
</g>
<g>
</g>
<g>
</g>
<g>
</g>
<g>
</g>
<g>
</g>
<g>
</g>
<g>
</g>
<g>
</g>
<g>
</g>
<g>
</g>
<g>
</g>
<g>
</g>
<g>
</g>
<g>
</g>
</svg>
