<svg height="512pt" viewBox="0 -26 512.00014 512" width="512pt" xmlns="http://www.w3.org/2000/svg"><path d="m358.398438 128h119.46875c14.136718 0 25.597656 11.460938 25.597656 25.601562v273.066407c0 14.136719-11.460938 25.597656-25.597656 25.597656h-119.46875c-14.136719 0-25.597657-11.460937-25.597657-25.597656v-273.066407c0-14.140624 11.460938-25.601562 25.597657-25.601562zm0 0" fill="#37474f"/><path d="m187.734375 366.933594h102.398437v68.265625h-102.398437zm0 0" fill="#37474f"/><path d="m187.734375 366.933594h68.265625v68.265625h-68.265625zm0 0" fill="#37474f"/><path d="m469.332031 298.667969v51.199219c0 18.851562-15.28125 34.132812-34.132812 34.132812h-392.53125c-18.851563 0-34.132813-15.28125-34.132813-34.132812v-51.199219zm0 0" fill="#37474f"/><path d="m307.203125 324.265625-.003906 51.199219c.027343 2.882812-.347657 5.753906-1.109375 8.535156h-263.421875c-18.851563 0-34.132813-15.28125-34.132813-34.132812v-25.601563zm0 0" fill="#607d8a"/><path d="m384 452.265625h-264.535156v-8.53125c0-14.140625 11.464844-25.601563 25.601562-25.601563h213.332032zm0 0" fill="#37474f"/><path d="m307.199219 418.132812v34.132813h-187.734375v-8.53125c0-14.140625 11.464844-25.601563 25.601562-25.601563zm0 0" fill="#607d8a"/><path d="m465.492188 27.238281h.085937c-.359375-.707031-.800781-1.363281-1.203125-2.046875s-.707031-1.304687-1.132812-1.914062c-1.039063-1.492188-2.199219-2.898438-3.464844-4.207032-.410156-.417968-.855469-.800781-1.265625-1.203124-1.089844-1.039063-2.253907-2-3.480469-2.875-.382812-.28125-.742188-.570313-1.144531-.851563-1.617188-1.082031-3.332031-2.015625-5.117188-2.792969-.34375-.144531-.691406-.246094-1.035156-.382812-1.546875-.605469-3.132813-1.097656-4.75-1.476563-.539063-.117187-1.058594-.246093-1.605469-.339843-2.035156-.394532-4.105468-.597657-6.179687-.613282h-392.53125c-18.851563 0-34.132813 15.28125-34.132813 34.132813v273.066406h460.796875v-273.066406c-.035156-5.375-1.351562-10.664063-3.839843-15.429688zm0 0" fill="#3b97d3"/><path d="m460.800781 42.667969v273.066406h-460.800781v-273.066406c-.0234375-9.496094 3.9375-18.570313 10.921875-25.003907 6.3125-5.855468 14.601563-9.113281 23.210937-9.128906h392.535157c2.058593.019532 4.117187.21875 6.144531.59375.59375.085938 1.109375.257813 1.621094.34375 1.617187.421875 3.214844.933594 4.777344 1.535156.351562.074219.695312.191407 1.023437.339844 1.792969.769532 3.507813 1.714844 5.121094 2.816406.382812.238282.753906.492188 1.109375.769532 1.21875.898437 2.386718 1.867187 3.496094 2.902344.429687.425781.855468.765624 1.28125 1.195312 1.28125 1.320312 2.453124 2.746094 3.5 4.265625.425781.597656.683593 1.277344 1.109374 1.875.425782.597656.851563 1.367187 1.195313 2.050781h-.085937c2.484374 4.769532 3.800781 10.0625 3.839843 15.445313zm0 0" fill="#9d9d9d"/><path d="m443.734375 51.199219v264.535156h-443.734375v-273.066406c-.0234375-9.496094 3.9375-18.570313 10.921875-25.003907 2.023437-.417968 4.082031-.617187 6.144531-.597656h392.535156c2.058594.023438 4.117188.222656 6.140626.597656.597656.085938 1.109374.257813 1.625.339844 1.617187.421875 3.214843.9375 4.777343 1.539063.351563.074219.695313.1875 1.023438.339843 1.792969.769532 3.507812 1.710938 5.121093 2.816407.382813.234375.753907.492187 1.109376.765625 1.21875.902344 2.386718 1.871094 3.496093 2.902344.429688.425781.855469.769531 1.28125 1.195312 1.28125 1.324219 2.453125 2.75 3.5 4.265625.425781.597656.683594 1.28125 1.109375 1.878906.425782.597657.851563 1.363281 1.195313 2.046875h-.085938c2.484375 4.773438 3.800781 10.066406 3.839844 15.445313zm0 0" fill="#ced7db"/><g fill="#e6e7e8"><path d="m76.800781 264.535156h-25.601562c-4.710938 0-8.53125 3.820313-8.53125 8.53125 0 4.714844 3.820312 8.535156 8.53125 8.535156h25.601562c4.710938 0 8.53125-3.820312 8.53125-8.535156 0-4.710937-3.820312-8.53125-8.53125-8.53125zm0 0"/><path d="m51.199219 213.332031h93.867187c4.714844 0 8.535156-3.820312 8.535156-8.53125 0-4.714843-3.820312-8.535156-8.535156-8.535156h-93.867187c-4.710938 0-8.53125 3.820313-8.53125 8.535156 0 4.710938 3.820312 8.53125 8.53125 8.53125zm0 0"/><path d="m179.199219 213.332031h119.46875c4.710937 0 8.53125-3.820312 8.53125-8.53125 0-4.714843-3.820313-8.535156-8.53125-8.535156h-119.46875c-4.710938 0-8.53125 3.820313-8.53125 8.535156 0 4.710938 3.820312 8.53125 8.53125 8.53125zm0 0"/><path d="m51.199219 247.464844h59.734375c4.710937 0 8.53125-3.820313 8.53125-8.53125 0-4.714844-3.820313-8.535156-8.53125-8.535156h-59.734375c-4.710938 0-8.53125 3.820312-8.53125 8.535156 0 4.710937 3.820312 8.53125 8.53125 8.53125zm0 0"/><path d="m145.066406 230.398438c-4.710937 0-8.53125 3.820312-8.53125 8.535156 0 4.710937 3.820313 8.53125 8.53125 8.53125h128c4.714844 0 8.535156-3.820313 8.535156-8.53125 0-4.714844-3.820312-8.535156-8.535156-8.535156zm0 0"/><path d="m332.800781 264.535156h-221.867187c-4.714844 0-8.535156 3.820313-8.535156 8.53125 0 4.714844 3.820312 8.535156 8.535156 8.535156h221.867187c4.710938 0 8.53125-3.820312 8.53125-8.535156 0-4.710937-3.820312-8.53125-8.53125-8.53125zm0 0"/><path d="m298.667969 238.933594c0 4.710937 3.820312 8.53125 8.53125 8.53125h25.601562c4.710938 0 8.53125-3.820313 8.53125-8.53125 0-4.714844-3.820312-8.535156-8.53125-8.535156h-25.601562c-4.710938 0-8.53125 3.820312-8.53125 8.535156zm0 0"/></g><path d="m51.199219 51.199219h85.335937c4.710938 0 8.53125 3.820312 8.53125 8.535156v102.398437c0 4.714844-3.820312 8.535157-8.53125 8.535157h-85.335937c-4.710938 0-8.53125-3.820313-8.53125-8.535157v-102.398437c0-4.714844 3.820312-8.535156 8.53125-8.535156zm0 0" fill="#fdc008"/><path d="m196.265625 51.199219h85.335937c4.710938 0 8.53125 3.820312 8.53125 8.535156v102.398437c0 4.714844-3.820312 8.535157-8.53125 8.535157h-85.335937c-4.710937 0-8.53125-3.820313-8.53125-8.535157v-102.398437c0-4.714844 3.820313-8.535156 8.53125-8.535156zm0 0" fill="#fdc008"/><path d="m341.332031 51.199219h85.335938c4.710937 0 8.53125 3.820312 8.53125 8.535156v102.398437c0 4.714844-3.820313 8.535157-8.53125 8.535157h-85.335938c-4.710937 0-8.53125-3.820313-8.53125-8.535157v-102.398437c0-4.714844 3.820313-8.535156 8.53125-8.535156zm0 0" fill="#fdc008"/><path d="m366.933594 341.332031h59.734375c4.710937 0 8.53125-3.820312 8.53125-8.53125 0-4.714843-3.820313-8.535156-8.53125-8.535156h-59.734375c-4.714844 0-8.535156 3.820313-8.535156 8.535156 0 4.710938 3.820312 8.53125 8.535156 8.53125zm0 0" fill="#e6e7e8"/><path d="m460.800781 341.332031h8.53125c4.714844 0 8.535157-3.820312 8.535157-8.53125 0-4.714843-3.820313-8.535156-8.535157-8.535156h-8.53125c-4.714843 0-8.535156 3.820313-8.535156 8.535156 0 4.710938 3.820313 8.53125 8.535156 8.53125zm0 0" fill="#e6e7e8"/><path d="m375.464844 358.398438h-8.53125c-4.714844 0-8.535156 3.820312-8.535156 8.535156 0 4.710937 3.820312 8.53125 8.535156 8.53125h8.53125c4.714844 0 8.535156-3.820313 8.535156-8.53125 0-4.714844-3.820312-8.535156-8.535156-8.535156zm0 0" fill="#e6e7e8"/><path d="m469.332031 358.398438h-59.730469c-4.714843 0-8.535156 3.820312-8.535156 8.535156 0 4.710937 3.820313 8.53125 8.535156 8.53125h59.730469c4.714844 0 8.535157-3.820313 8.535157-8.53125 0-4.714844-3.820313-8.535156-8.535157-8.535156zm0 0" fill="#e6e7e8"/><path d="m51.199219 51.199219h59.734375c4.710937 0 8.53125 3.820312 8.53125 8.535156v102.398437c0 4.714844-3.820313 8.535157-8.53125 8.535157h-59.734375c-4.710938 0-8.53125-3.820313-8.53125-8.535157v-102.398437c0-4.714844 3.820312-8.535156 8.53125-8.535156zm0 0" fill="#ffea3a"/><path d="m196.265625 51.199219h59.734375c4.714844 0 8.535156 3.820312 8.535156 8.535156v102.398437c0 4.714844-3.820312 8.535157-8.535156 8.535157h-59.734375c-4.710937 0-8.53125-3.820313-8.53125-8.535157v-102.398437c0-4.714844 3.820313-8.535156 8.53125-8.535156zm0 0" fill="#ffea3a"/><path d="m341.332031 51.199219h59.734375c4.714844 0 8.535156 3.820312 8.535156 8.535156v102.398437c0 4.714844-3.820312 8.535157-8.535156 8.535157h-59.734375c-4.710937 0-8.53125-3.820313-8.53125-8.535157v-102.398437c0-4.714844 3.820313-8.535156 8.53125-8.535156zm0 0" fill="#ffea3a"/><path d="m426.667969 435.199219v17.066406h-17.066407v-17.066406c0-4.710938 3.820313-8.53125 8.53125-8.53125 4.714844 0 8.535157 3.820312 8.535157 8.53125zm0 0" fill="#7f8c8d"/><path d="m358.398438 128h93.867187c14.140625 0 25.601563 11.460938 25.601563 25.601562v273.066407c0 14.136719-11.460938 25.597656-25.601563 25.597656h-93.867187c-14.136719 0-25.597657-11.460937-25.597657-25.597656v-273.066407c0-14.140624 11.460938-25.601562 25.597657-25.601562zm0 0" fill="#607d8a"/><path d="m332.800781 179.199219h170.664063v221.867187h-170.664063zm0 0" fill="#9d9d9d"/><path d="m332.800781 179.199219h145.066407v221.867187h-145.066407zm0 0" fill="#ced7db"/><path d="m375.464844 213.332031h85.335937c4.710938 0 8.53125 3.820313 8.53125 8.535157v68.265624c0 4.714844-3.820312 8.535157-8.53125 8.535157h-85.335937c-4.710938 0-8.53125-3.820313-8.53125-8.535157v-68.265624c0-4.714844 3.820312-8.535157 8.53125-8.535157zm0 0" fill="#fdc008"/><path d="m375.464844 213.332031h59.734375c4.714843 0 8.535156 3.820313 8.535156 8.535157v68.265624c0 4.714844-3.820313 8.535157-8.535156 8.535157h-59.734375c-4.710938 0-8.53125-3.820313-8.53125-8.535157v-68.265624c0-4.714844 3.820312-8.535157 8.53125-8.535157zm0 0" fill="#ffea3a"/><path d="m76.800781 264.535156h-25.601562c-4.710938 0-8.53125 3.820313-8.53125 8.53125 0 4.714844 3.820312 8.535156 8.53125 8.535156h25.601562c4.710938 0 8.53125-3.820312 8.53125-8.535156 0-4.710937-3.820312-8.53125-8.53125-8.53125zm0 0"/><path d="m51.199219 213.332031h93.867187c4.714844 0 8.535156-3.820312 8.535156-8.53125 0-4.714843-3.820312-8.535156-8.535156-8.535156h-93.867187c-4.710938 0-8.53125 3.820313-8.53125 8.535156 0 4.710938 3.820312 8.53125 8.53125 8.53125zm0 0"/><path d="m179.199219 213.332031h119.46875c4.710937 0 8.53125-3.820312 8.53125-8.53125 0-4.714843-3.820313-8.535156-8.53125-8.535156h-119.46875c-4.710938 0-8.53125 3.820313-8.53125 8.535156 0 4.710938 3.820312 8.53125 8.53125 8.53125zm0 0"/><path d="m110.933594 230.398438h-59.734375c-4.710938 0-8.53125 3.820312-8.53125 8.535156 0 4.710937 3.820312 8.53125 8.53125 8.53125h59.734375c4.710937 0 8.53125-3.820313 8.53125-8.53125 0-4.714844-3.820313-8.535156-8.53125-8.535156zm0 0"/><path d="m273.066406 230.398438h-128c-4.710937 0-8.53125 3.820312-8.53125 8.535156 0 4.710937 3.820313 8.53125 8.53125 8.53125h128c4.714844 0 8.535156-3.820313 8.535156-8.53125 0-4.714844-3.820312-8.535156-8.535156-8.535156zm0 0"/><path d="m366.933594 341.332031h59.734375c4.710937 0 8.53125-3.820312 8.53125-8.53125 0-4.714843-3.820313-8.535156-8.53125-8.535156h-59.734375c-4.714844 0-8.535156 3.820313-8.535156 8.535156 0 4.710938 3.820312 8.53125 8.535156 8.53125zm0 0"/><path d="m469.332031 324.265625h-8.53125c-4.714843 0-8.535156 3.820313-8.535156 8.535156 0 4.710938 3.820313 8.53125 8.535156 8.53125h8.53125c4.714844 0 8.535157-3.820312 8.535157-8.53125 0-4.714843-3.820313-8.535156-8.535157-8.535156zm0 0"/><path d="m375.464844 358.398438h-8.53125c-4.714844 0-8.535156 3.820312-8.535156 8.535156 0 4.710937 3.820312 8.53125 8.535156 8.53125h8.53125c4.714844 0 8.535156-3.820313 8.535156-8.53125 0-4.714844-3.820312-8.535156-8.535156-8.535156zm0 0"/><path d="m469.332031 358.398438h-59.730469c-4.714843 0-8.535156 3.820312-8.535156 8.535156 0 4.710937 3.820313 8.53125 8.535156 8.53125h59.730469c4.714844 0 8.535157-3.820313 8.535157-8.53125 0-4.714844-3.820313-8.535156-8.535157-8.535156zm0 0"/><path d="m51.199219 179.199219h85.335937c9.425782 0 17.066406-7.640625 17.066406-17.066407v-102.398437c0-9.425781-7.640624-17.066406-17.066406-17.066406h-85.335937c-9.425781 0-17.066407 7.640625-17.066407 17.066406v102.398437c0 9.425782 7.640626 17.066407 17.066407 17.066407zm0-119.464844h85.335937v102.398437h-85.335937zm0 0"/><path d="m460.800781 204.800781h-85.335937c-9.421875 0-17.066406 7.640625-17.066406 17.066407v68.265624c0 9.425782 7.644531 17.066407 17.066406 17.066407h85.335937c9.425781 0 17.066407-7.640625 17.066407-17.066407v-68.265624c0-9.425782-7.640626-17.066407-17.066407-17.066407zm-85.335937 85.332031v-68.265624h85.335937v68.265624zm0 0"/><path d="m196.265625 179.199219h85.335937c9.425782 0 17.066407-7.640625 17.066407-17.066407v-102.398437c0-9.425781-7.640625-17.066406-17.066407-17.066406h-85.335937c-9.425781 0-17.066406 7.640625-17.066406 17.066406v102.398437c0 9.425782 7.640625 17.066407 17.066406 17.066407zm0-119.464844h85.335937v102.398437h-85.335937zm0 0"/><path d="m477.867188 119.464844v-76.796875c-.027344-23.554688-19.113282-42.6406252-42.667969-42.667969h-392.53125c-23.554688.0273438-42.6406252 19.113281-42.667969 42.667969v307.199219c.0273438 23.550781 19.113281 42.636718 42.667969 42.667968h136.53125v17.066406h-34.132813c-18.851562 0-34.132812 15.28125-34.132812 34.132813v8.53125c0 4.714844 3.820312 8.535156 8.53125 8.535156h358.402344c18.851562 0 34.132812-15.28125 34.132812-34.132812v-273.066407c0-18.851562-15.28125-34.136718-34.132812-34.136718zm-153.601563 273.070312v17.066406h-25.597656v-17.066406zm102.402344-273.070312h-68.269531c-6.007813.03125-11.902344 1.671875-17.066407 4.746094v-64.476563h85.335938zm-85.335938 68.269531h153.601563v204.800781h-153.601563zm153.601563-34.132813v17.066407h-153.601563v-17.066407c0-9.425781 7.640625-17.066406 17.066407-17.066406h119.46875c9.425781 0 17.066406 7.640625 17.066406 17.066406zm-452.265625-136.535156h392.53125c14.140625 0 25.601562 11.460938 25.601562 25.601563v76.796875h-17.066406v-59.730469c0-9.425781-7.640625-17.066406-17.066406-17.066406h-85.335938c-9.425781 0-17.066406 7.640625-17.066406 17.066406v170.664063h-17.066406c-4.710938 0-8.53125 3.820312-8.53125 8.535156 0 4.710937 3.820312 8.53125 8.53125 8.53125h17.066406v17.070312h-213.332031c-4.714844 0-8.535156 3.820313-8.535156 8.53125 0 4.714844 3.820312 8.535156 8.535156 8.535156h213.332031v25.597657h-307.199219v-264.53125c0-14.140625 11.460938-25.601563 25.601563-25.601563zm-25.601563 332.800782v-25.601563h307.199219v51.199219h-281.597656c-14.140625 0-25.601563-11.460938-25.601563-25.597656zm179.199219 42.667968h85.335937v17.066406h-85.335937zm-51.199219 34.132813h179.199219c.039063 6.007812 1.675781 11.898437 4.746094 17.066406h-201.011719c0-9.425781 7.640625-17.066406 17.066406-17.066406zm332.800782 17.066406h-51.199219v-8.535156c0-4.710938-3.820313-8.53125-8.535157-8.53125-4.710937 0-8.53125 3.820312-8.53125 8.53125v8.535156h-51.203124c-9.425782 0-17.066407-7.640625-17.066407-17.066406v-17.066407h153.601563v17.066407c0 9.425781-7.640625 17.066406-17.066406 17.066406zm0 0"/></svg>