<svg viewBox="0 0 92 32" fill="none" xmlns="http://www.w3.org/2000/svg"><path d="M37.369 22V10.142h8.008v2.242h-5.339v2.327h4.74v2.19h-4.74v2.857h5.732V22h-8.4zm13.046-2.173c.126.011.268.023.428.034h.599c1.334 0 2.321-.336 2.96-1.01.65-.672.975-1.602.975-2.789 0-1.243-.308-2.184-.924-2.823-.616-.639-1.59-.958-2.926-.958-.182 0-.37.006-.564.017a4.15 4.15 0 0 0-.548.034v7.495zm7.717-3.765c0 1.027-.16 1.923-.479 2.687a4.934 4.934 0 0 1-1.369 1.9c-.581.501-1.294.878-2.139 1.129-.844.25-1.79.376-2.84.376-.48 0-1.038-.023-1.677-.068a12.872 12.872 0 0 1-1.882-.24v-11.55a14.676 14.676 0 0 1 1.916-.222 26.07 26.07 0 0 1 1.729-.069c1.015 0 1.933.114 2.754.342.833.229 1.546.588 2.14 1.078a4.792 4.792 0 0 1 1.368 1.883c.32.764.48 1.682.48 2.754zm4.232 1.147c0 1.426.576 2.139 1.728 2.139a2.744 2.744 0 0 0 1.318-.343v-4.072a4.021 4.021 0 0 0-.445-.051 4.593 4.593 0 0 0-.6-.034c-.672 0-1.174.222-1.505.667-.33.445-.496 1.01-.496 1.694zm5.595 3.662c0 1.471-.376 2.56-1.13 3.268-.74.719-1.893 1.078-3.455 1.078a8.893 8.893 0 0 1-1.643-.154 9.596 9.596 0 0 1-1.523-.377l.445-2.138c.4.16.816.285 1.249.376a7.55 7.55 0 0 0 1.506.137c.73 0 1.243-.16 1.54-.48.308-.319.462-.73.462-1.231v-.325a4.458 4.458 0 0 1-.856.29 4.81 4.81 0 0 1-.94.086c-1.244 0-2.197-.365-2.858-1.095-.662-.742-.993-1.774-.993-3.097a5 5 0 0 1 .308-1.797 3.884 3.884 0 0 1 .89-1.403c.4-.388.884-.684 1.454-.89.57-.216 1.215-.325 1.934-.325.308 0 .621.017.94.052.332.022.657.057.976.102.32.046.622.103.907.171.297.057.56.12.787.189v7.563zm7.816-5.613a13.509 13.509 0 0 0-.805-.17 4.572 4.572 0 0 0-.992-.104c-.16 0-.353.018-.582.052a2.89 2.89 0 0 0-.496.085V22h-2.55v-8.521c.457-.16.993-.308 1.609-.445a9.084 9.084 0 0 1 2.087-.223c.137 0 .303.012.497.035.194.011.388.034.581.068.195.023.388.057.582.103.194.034.36.08.496.137l-.427 2.104zM80.119 22h-2.55v-9h2.55v9zm.24-11.601c0 .467-.155.838-.463 1.112-.296.262-.65.393-1.06.393-.411 0-.77-.13-1.079-.393-.296-.274-.444-.645-.444-1.112 0-.468.148-.833.444-1.095a1.572 1.572 0 0 1 1.078-.411c.411 0 .765.137 1.061.41.308.263.462.628.462 1.096zm4.33 7.032c0 .787.176 1.42.53 1.9.354.479.878.718 1.574.718.228 0 .44-.005.633-.017.194-.023.354-.045.48-.068v-4.637a2.207 2.207 0 0 0-.634-.257 2.916 2.916 0 0 0-.77-.103c-1.209 0-1.813.822-1.813 2.464zm5.766 4.278c-.228.069-.49.137-.787.205-.297.057-.61.109-.941.154-.32.046-.65.08-.993.103-.33.034-.65.051-.958.051-.741 0-1.403-.108-1.985-.325a4.044 4.044 0 0 1-1.471-.924c-.4-.41-.708-.9-.924-1.471-.206-.582-.308-1.232-.308-1.95 0-.731.091-1.387.274-1.969.182-.593.444-1.095.787-1.505a3.381 3.381 0 0 1 1.249-.942c.502-.216 1.072-.325 1.71-.325a3.9 3.9 0 0 1 .942.103c.285.068.57.165.856.29V9.133l2.549-.41V21.71z" fill="#2A3B47"/><g clip-path="url(#clip0)" fill-rule="evenodd" clip-rule="evenodd"><path d="M1.6 0A1.6 1.6 0 0 0 0 1.6v8h20.8V0H1.6z" fill="#1292EE"/><path d="M30.4 0h-8v20.8H32V1.6A1.6 1.6 0 0 0 30.4 0z" fill="#EB5757"/><path d="M0 11.2v19.2A1.6 1.6 0 0 0 1.6 32h8V11.2H0z" fill="#59B3F3"/><path d="M11.2 22.4V32h19.2a1.6 1.6 0 0 0 1.6-1.6v-8H11.2z" fill="#FFB940"/></g><defs><clipPath id="clip0"><path fill="#fff" d="M0 0h32v32H0z"/></clipPath></defs></svg>