<?xml version="1.0"?>
<svg xmlns="http://www.w3.org/2000/svg" id="Icons" height="512px" viewBox="0 0 60 60" width="512px" class=""><g><rect fill="#5da0ff" height="58" rx="3" width="58" x="1" y="1" data-original="#5DA0FF" class=""/><rect fill="#fff" height="50" rx="1" transform="matrix(0 1 -1 0 62 2)" width="46" x="7" y="7" data-original="#FFF"/><rect fill="#e4f1ff" height="16" rx="2" width="18" x="33" y="14" data-original="#E4F1FF"/><rect fill="#e4f1ff" height="16" rx="2" width="18" x="9" y="14" data-original="#E4F1FF"/><rect fill="#e4f1ff" height="16" rx="2" width="18" x="33" y="34" data-original="#E4F1FF"/><rect fill="#e4f1ff" height="16" rx="2" width="18" x="9" y="34" data-original="#E4F1FF"/><path d="m23 30v-1a5 5 0 0 0 -10 0v1z" fill="#b5cedd" data-original="#B5CEDD"/><circle cx="18" cy="21" fill="#b5cedd" r="3" data-original="#B5CEDD"/><path d="m22 42a4.025 4.025 0 0 1 -1.17 2.83l-3.83-1.83 1-5a4 4 0 0 1 4 4z" fill="#fde36e" data-original="#FDE36E"/><path d="m20.83 44.83a4 4 0 1 1 -2.83-6.83v4z" fill="#9e9ceb" data-original="#9E9CEB" class=""/><g fill="#373737"><path d="m4 10v44a2 2 0 0 0 2 2h48a2 2 0 0 0 2-2v-44a2 2 0 0 0 -2-2h-48a2 2 0 0 0 -2 2zm2 0h48v44h-48z" data-original="#373737" class="active-path" style="fill:#000000" data-old_color="#373737"/><path d="m49 13h-14a3 3 0 0 0 -3 3v12a3 3 0 0 0 3 3h14a3 3 0 0 0 3-3v-12a3 3 0 0 0 -3-3zm1 15a1 1 0 0 1 -1 1h-14a1 1 0 0 1 -1-1v-12a1 1 0 0 1 1-1h14a1 1 0 0 1 1 1z" data-original="#373737" class="active-path" style="fill:#000000" data-old_color="#373737"/><path d="m25 13h-14a3 3 0 0 0 -3 3v12a3 3 0 0 0 3 3h14a3 3 0 0 0 3-3v-12a3 3 0 0 0 -3-3zm-9 8a2 2 0 1 1 2 2 2 2 0 0 1 -2-2zm2 4a4 4 0 0 1 4 4h-8a4 4 0 0 1 4-4zm8 3a1 1 0 0 1 -1 1h-1a6 6 0 0 0 -3.107-5.253 4 4 0 1 0 -5.786 0 6 6 0 0 0 -3.107 5.253h-1a1 1 0 0 1 -1-1v-12a1 1 0 0 1 1-1h14a1 1 0 0 1 1 1z" data-original="#373737" class="active-path" style="fill:#000000" data-old_color="#373737"/><path d="m49 33h-14a3 3 0 0 0 -3 3v12a3 3 0 0 0 3 3h14a3 3 0 0 0 3-3v-12a3 3 0 0 0 -3-3zm1 15a1 1 0 0 1 -1 1h-14a1 1 0 0 1 -1-1v-12a1 1 0 0 1 1-1h14a1 1 0 0 1 1 1z" data-original="#373737" class="active-path" style="fill:#000000" data-old_color="#373737"/><path d="m25 33h-14a3 3 0 0 0 -3 3v12a3 3 0 0 0 3 3h14a3 3 0 0 0 3-3v-12a3 3 0 0 0 -3-3zm1 15a1 1 0 0 1 -1 1h-14a1 1 0 0 1 -1-1v-12a1 1 0 0 1 1-1h14a1 1 0 0 1 1 1z" data-original="#373737" class="active-path" style="fill:#000000" data-old_color="#373737"/><path d="m18 37a5 5 0 1 0 3.5 8.562c.011-.01.026-.014.037-.025s.015-.026.025-.037a4.994 4.994 0 0 0 -3.562-8.5zm3 5a2.951 2.951 0 0 1 -.3 1.285l-1.7-1.7v-2.4a3 3 0 0 1 2 2.815zm-6 0a3 3 0 0 1 2-2.816v2.816a1 1 0 0 0 .293.707l1.992 1.993a2.951 2.951 0 0 1 -1.285.3 3 3 0 0 1 -3-3z" data-original="#373737" class="active-path" style="fill:#000000" data-old_color="#373737"/><path d="m56 0h-52a4 4 0 0 0 -4 4v5a1 1 0 0 0 2 0v-5a2 2 0 0 1 2-2h52a2 2 0 0 1 2 2v52a2 2 0 0 1 -2 2h-52a2 2 0 0 1 -2-2v-43a1 1 0 0 0 -2 0v43a4 4 0 0 0 4 4h52a4 4 0 0 0 4-4v-52a4 4 0 0 0 -4-4z" data-original="#373737" class="active-path" style="fill:#000000" data-old_color="#373737"/><path d="m7 6a1 1 0 0 0 0-2h-1a1 1 0 0 0 0 2z" data-original="#373737" class="active-path" style="fill:#000000" data-old_color="#373737"/><path d="m12 6a1 1 0 0 0 0-2h-1a1 1 0 0 0 0 2z" data-original="#373737" class="active-path" style="fill:#000000" data-old_color="#373737"/><path d="m17 6a1 1 0 0 0 0-2h-1a1 1 0 0 0 0 2z" data-original="#373737" class="active-path" style="fill:#000000" data-old_color="#373737"/><path d="m54 6a1 1 0 0 0 0-2h-6a1 1 0 0 0 0 2z" data-original="#373737" class="active-path" style="fill:#000000" data-old_color="#373737"/><path d="m40.383 18.076a1 1 0 0 0 -1.09.217l-1 1a1 1 0 0 0 .707 1.707v4a1 1 0 0 0 2 0v-6a1 1 0 0 0 -.617-.924z" data-original="#373737" class="active-path" style="fill:#000000" data-old_color="#373737"/><path d="m45.383 18.076a1 1 0 0 0 -1.09.217l-1 1a1 1 0 0 0 .707 1.707v4a1 1 0 0 0 2 0v-6a1 1 0 0 0 -.617-.924z" data-original="#373737" class="active-path" style="fill:#000000" data-old_color="#373737"/><path d="m45 41h-2v-2a1 1 0 0 0 -2 0v2h-2a1 1 0 0 0 0 2h2v2a1 1 0 0 0 2 0v-2h2a1 1 0 0 0 0-2z" data-original="#373737" class="active-path" style="fill:#000000" data-old_color="#373737"/></g></g> </svg>
