<?xml version="1.0" encoding="iso-8859-1"?>
<!-- Generator: Adobe Illustrator 19.0.0, SVG Export Plug-In . SVG Version: 6.00 Build 0)  -->
<svg version="1.1" id="Capa_1" xmlns="http://www.w3.org/2000/svg" xmlns:xlink="http://www.w3.org/1999/xlink" x="0px" y="0px"
	 viewBox="0 0 511.999 511.999" style="enable-background:new 0 0 511.999 511.999;" xml:space="preserve">
<g fill="#FBA905">
  <g>
	<g>
		<path d="M480.452,48.096H31.548C14.152,48.096,0,62.248,0,79.645v352.709c0,17.396,14.152,31.549,31.548,31.549h448.903
			c17.396,0,31.548-14.152,31.548-31.549V79.645C512,62.248,497.848,48.096,480.452,48.096z M497,432.354
			c0,9.124-7.423,16.548-16.548,16.548H31.548c-9.125,0-16.548-7.424-16.548-16.549V127.225h377.274c4.142,0,7.5-3.357,7.5-7.5
			c0-4.142-3.358-7.5-7.5-7.5H15v-32.58c0-9.125,7.423-16.549,16.548-16.549h448.903c9.125,0,16.548,7.424,16.548,16.549v32.58
			h-72.662c-4.142,0-7.5,3.358-7.5,7.5c0,4.143,3.358,7.5,7.5,7.5H497V432.354z"/>
	</g>
</g>
<g>
	<g>
		<path d="M39.645,80.16h-0.08c-4.142,0-7.46,3.358-7.46,7.5c0,4.143,3.398,7.5,7.54,7.5c4.142,0,7.5-3.357,7.5-7.5
			C47.145,83.519,43.787,80.16,39.645,80.16z"/>
	</g>
</g>
<g>
	<g>
		<path d="M103.774,80.16h-0.081c-4.142,0-7.46,3.358-7.46,7.5c0,4.143,3.398,7.5,7.541,7.5s7.5-3.357,7.5-7.5
			C111.274,83.519,107.916,80.16,103.774,80.16z"/>
	</g>
</g>
<g>
	<g>
		<path d="M71.709,80.16h-0.08c-4.142,0-7.46,3.358-7.46,7.5c0,4.143,3.398,7.5,7.54,7.5c4.142,0,7.5-3.357,7.5-7.5
			C79.209,83.519,75.851,80.16,71.709,80.16z"/>
	</g>
</g>
<g>
	<g>
		<path d="M392.274,80.16H135.758c-4.142,0-7.5,3.358-7.5,7.5c0,4.143,3.358,7.5,7.5,7.5h256.516c4.142,0,7.5-3.357,7.5-7.5
			C399.774,83.519,396.417,80.16,392.274,80.16z"/>
	</g>
</g>
<g>
	<g>
		<path d="M472.436,80.16h-48.097c-4.142,0-7.5,3.358-7.5,7.5c0,4.143,3.358,7.5,7.5,7.5h48.097c4.142,0,7.5-3.357,7.5-7.5
			C479.936,83.518,476.578,80.16,472.436,80.16z"/>
	</g>
</g>
<g>
	<g>
		<path d="M223.936,176.353H79.645c-8.556,0-15.516,6.961-15.516,15.517v80.161c0,8.556,6.96,15.516,15.516,15.516h144.291
			c8.556,0,15.516-6.96,15.516-15.516V191.87C239.452,183.314,232.491,176.353,223.936,176.353z M224.452,272.031
			c0,0.285-0.231,0.516-0.516,0.516H79.645c-0.285,0-0.516-0.231-0.516-0.516V191.87c0-0.285,0.231-0.517,0.516-0.517h144.291
			c0.285,0,0.516,0.231,0.516,0.517V272.031z"/>
	</g>
</g>
<g>
	<g>
		<path d="M231.952,320.645H119.726c-4.142,0-7.5,3.357-7.5,7.5c0,4.142,3.358,7.5,7.5,7.5h112.226c4.142,0,7.5-3.358,7.5-7.5
			C239.452,324.002,236.094,320.645,231.952,320.645z"/>
	</g>
</g>
<g>
	<g>
		<path d="M87.662,320.645H71.629c-4.142,0-7.5,3.357-7.5,7.5c0,4.141,3.358,7.5,7.5,7.5h16.033c4.142,0,7.5-3.358,7.5-7.5
			C95.162,324.002,91.804,320.645,87.662,320.645z"/>
	</g>
</g>
<g>
	<g>
		<path d="M231.952,352.709H71.629c-4.142,0-7.5,3.357-7.5,7.5c0,4.142,3.358,7.5,7.5,7.5h160.323c4.142,0,7.5-3.358,7.5-7.5
			C239.452,356.066,236.094,352.709,231.952,352.709z"/>
	</g>
</g>
<g>
	<g>
		<path d="M231.952,384.773h-48.095c-4.142,0-7.5,3.357-7.5,7.5c0,4.142,3.358,7.5,7.5,7.5h48.095c4.142,0,7.5-3.358,7.5-7.5
			C239.452,388.131,236.094,384.773,231.952,384.773z"/>
	</g>
</g>
<g>
	<g>
		<path d="M151.791,384.773H71.629c-4.142,0-7.5,3.357-7.5,7.5c0,4.142,3.358,7.5,7.5,7.5h80.162c4.142,0,7.5-3.358,7.5-7.5
			C159.291,388.131,155.933,384.773,151.791,384.773z"/>
	</g>
</g>
<g>
	<g>
		<path d="M328.143,320.645h-48.095c-4.142,0-7.5,3.357-7.5,7.5c0,4.141,3.358,7.5,7.5,7.5h48.095c4.142,0,7.5-3.358,7.5-7.5
			C335.643,324.002,332.285,320.645,328.143,320.645z"/>
	</g>
</g>
<g>
	<g>
		<path d="M440.371,320.645h-80.162c-4.142,0-7.5,3.357-7.5,7.5c0,4.142,3.358,7.5,7.5,7.5h80.162c4.142,0,7.5-3.358,7.5-7.5
			C447.871,324.002,444.513,320.645,440.371,320.645z"/>
	</g>
</g>
<g>
	<g>
		<path d="M432.355,176.353H288.064c-8.556,0-15.516,6.961-15.516,15.517v80.161c0,8.556,6.96,15.516,15.516,15.516h144.291
			c8.556,0,15.516-6.96,15.516-15.516V191.87C447.871,183.314,440.911,176.353,432.355,176.353z M432.355,272.547H288.064
			c-0.285,0-0.516-0.231-0.516-0.516V191.87c0-0.285,0.231-0.517,0.516-0.517h144.291c0.285,0,0.516,0.231,0.516,0.517v80.161h0
			C432.871,272.316,432.64,272.547,432.355,272.547z"/>
	</g>
</g>
<g>
	<g>
		<path d="M440.371,352.709H280.048c-4.142,0-7.5,3.357-7.5,7.5c0,4.142,3.358,7.5,7.5,7.5h160.323c4.142,0,7.5-3.358,7.5-7.5
			C447.871,356.066,444.513,352.709,440.371,352.709z"/>
	</g>
</g>
<g>
	<g>
		<path d="M440.371,384.773h-16.033c-4.142,0-7.5,3.357-7.5,7.5c0,4.142,3.358,7.5,7.5,7.5h16.033c4.142,0,7.5-3.358,7.5-7.5
			C447.871,388.131,444.513,384.773,440.371,384.773z"/>
	</g>
</g>
<g>
	<g>
		<path d="M392.271,384.773H280.048c-4.142,0-7.5,3.357-7.5,7.5c0,4.142,3.358,7.5,7.5,7.5h112.223c4.142,0,7.5-3.358,7.5-7.5
			C399.771,388.131,396.413,384.773,392.271,384.773z"/>
	</g>
</g>
<g>
</g>
<g>
</g>
<g>
</g>
<g>
</g>
<g>
</g>
<g>
</g>
<g>
</g>
<g>
</g>
<g>
</g>
<g>
</g>
<g>
</g>
<g>
</g>
<g>
</g>
<g>
</g>
<g>
</g>
  </g>
</svg>
