<?xml version="1.0" encoding="iso-8859-1"?>
<!-- Generator: Adobe Illustrator 19.0.0, SVG Export Plug-In . SVG Version: 6.00 Build 0)  -->
<svg version="1.1" id="Layer_1" xmlns="http://www.w3.org/2000/svg" xmlns:xlink="http://www.w3.org/1999/xlink" x="0px" y="0px"
	 viewBox="0 0 512 512" style="enable-background:new 0 0 512 512;" xml:space="preserve">
<g fill="#FF3C32">
	<g>
		<g>
			<path d="M49.862,214.158c-4.486,0-8.121,3.635-8.121,8.121v5.59c0,4.486,3.635,8.121,8.121,8.121s8.121-3.635,8.121-8.121v-5.59
				C57.984,217.793,54.348,214.158,49.862,214.158z"/>
			<path d="M49.862,186.492c-4.486,0-8.121,3.635-8.121,8.121v5.59c0,4.486,3.635,8.121,8.121,8.121s8.121-3.635,8.121-8.121v-5.59
				C57.984,190.128,54.348,186.492,49.862,186.492z"/>
			<path d="M470.26,284.131c0-4.486-3.636-8.121-8.121-8.121c-4.486,0-8.121,3.635-8.121,8.121v5.59
				c0,4.485,3.635,8.121,8.121,8.121c4.485,0,8.121-3.636,8.121-8.121V284.131z"/>
			<path d="M454.017,311.797v5.59c0,4.486,3.635,8.121,8.121,8.121c4.485,0,8.121-3.635,8.121-8.121v-5.59
				c0-4.486-3.635-8.121-8.121-8.121C457.652,303.676,454.017,307.311,454.017,311.797z"/>
			<path d="M496.71,398.605c0.817-2.327,1.26-4.827,1.26-7.43v-0.58c0-3.953-1.033-7.668-2.832-10.899
				c0.001-0.058,0.009-0.115,0.009-0.174v-74.211c0-4.486-3.635-8.121-8.121-8.121s-8.121,3.635-8.121,8.121v63.082
				c-1.12-0.172-2.258-0.289-3.424-0.289h-0.601h-40.762h-9.157c5.372-5.285,10.033-11.7,11.586-18.894
				c1.623-7.514-0.284-14.904-5.514-21.372c-0.045-0.056-0.091-0.112-0.139-0.167c-0.606-0.711-15.216-17.18-44.988,4.546
				c-3.213,2.343-6.157,4.085-8.935,5.419v-72.21h101.933v12.273c0,4.485,3.635,8.121,8.121,8.121s8.121-3.636,8.121-8.121v-56.084
				c0-4.486-3.635-8.121-8.121-8.121h-5.056v-25.186c8.759-7.624,14.504-21.943,17.502-43.533c2.273-16.362,2.062-31.049,2.035-32.5
				V70.994c0-12.403-10.09-22.493-22.493-22.493h-0.581c-2.168,0-4.264,0.307-6.249,0.883V36.52
				c0-12.401-10.089-22.491-22.491-22.491h-0.581c-2.569,0-5.029,0.454-7.33,1.25C438.766,6.409,430.374,0,420.497,0h-0.581
				c-9.885,0-18.301,6.409-21.311,15.291c-2.328-0.818-4.828-1.262-7.431-1.262h-0.58c-3.972,0-7.699,1.044-10.942,2.859
				c-0.239-0.021-0.48-0.037-0.726-0.037H221.611c-4.486,0-8.121,3.635-8.121,8.121v5.057h-25.186
				c-7.624-8.759-21.943-14.503-43.533-17.502c-16.361-2.272-31.05-2.061-32.5-2.035H70.992C58.59,10.493,48.5,20.582,48.5,32.985
				v0.583c0,2.168,0.308,4.264,0.883,6.249H36.52c-12.402,0-22.492,10.089-22.492,22.491v0.58c0,2.569,0.454,5.029,1.251,7.33
				C6.408,73.231,0,81.624,0,91.499v0.583c0,9.884,6.409,18.3,15.29,21.311c-0.818,2.327-1.262,4.828-1.262,7.431v0.579
				c0,3.948,1.03,7.658,2.824,10.887v158.098c0,4.486,3.635,8.121,8.121,8.121h5.056v25.186
				c-8.759,7.624-14.504,21.943-17.501,43.533c-2.273,16.363-2.062,31.051-2.035,32.501v41.277
				c0,12.403,10.089,22.493,22.492,22.493h0.58c2.168,0,4.265-0.309,6.25-0.883v12.862c0,12.401,10.089,22.491,22.491,22.491h0.582
				c2.569,0,5.027-0.454,7.329-1.25C73.233,505.591,81.625,512,91.501,512h0.582c9.885,0,18.301-6.409,21.311-15.29
				c2.327,0.817,4.827,1.26,7.43,1.26h0.581c3.948,0,7.656-1.03,10.885-2.823h29.364c4.486,0,8.121-3.635,8.121-8.121
				s-3.635-8.121-8.121-8.121h-18.045c0.171-1.12,0.289-2.257,0.289-3.424v-0.601v-40.761v-9.156
				c5.285,5.371,11.699,10.032,18.893,11.584c1.738,0.376,3.471,0.563,5.187,0.563c5.698,0,11.215-2.056,16.185-6.076
				c0.057-0.045,0.113-0.091,0.167-0.139c0.711-0.606,17.176-15.217-4.546-44.988c-2.343-3.213-4.086-6.157-5.419-8.935h72.213
				v101.932h-59.663c-4.486,0-8.121,3.635-8.121,8.121s3.635,8.121,8.121,8.121h103.474c4.486,0,8.121-3.635,8.121-8.121v-5.057
				h25.186c7.624,8.759,21.943,14.504,43.533,17.502c13.239,1.838,25.381,2.052,30.302,2.052c1.161,0,1.92-0.012,2.197-0.017h41.281
				c12.402,0,22.492-10.089,22.492-22.492v-0.581c0-2.168-0.309-4.265-0.883-6.25h12.862c12.401,0,22.491-10.089,22.491-22.491
				v-0.58c0-2.569-0.454-5.028-1.251-7.329c8.871-3.014,15.28-11.406,15.28-21.282v-0.583
				C512,410.031,505.591,401.613,496.71,398.605z M478.905,249.181H376.972v-19.447h101.933V249.181z M379.872,119.606
				c3.027-1.52,4.687-4.676,4.452-7.856c0.009-0.154,0.024-0.304,0.024-0.459V77.881v-40.76V36.52c0-3.446,2.803-6.248,6.249-6.248
				h0.579v0.001c3.446,0,6.249,2.802,6.249,6.248c0,0.102,0.012,0.2,0.015,0.3c-0.003,0.101-0.015,0.199-0.015,0.3v68.864
				c0,4.486,3.635,8.121,8.121,8.121c4.485,0,8.121-3.635,8.121-8.121V37.121c0-0.102-0.012-0.2-0.015-0.3
				c0.003-0.101,0.015-0.199,0.015-0.3V22.491c0-3.446,2.804-6.248,6.249-6.248h0.581c3.446,0,6.248,2.802,6.248,6.248v11.663
				c-0.081,0.779-0.127,1.566-0.127,2.366v17.815c0,0.474,0.049,0.936,0.127,1.387v50.262c0,4.486,3.635,8.121,8.121,8.121
				c4.486,0,8.121-3.635,8.121-8.121V50.3c0-0.474-0.049-0.936-0.127-1.387v-0.198c0.078-0.452,0.127-0.914,0.127-1.387V35.264
				c0.584-2.845,3.107-4.991,6.121-4.991h0.581c3.446,0,6.248,2.802,6.248,6.248v28.656v5.816v34.993
				c0,4.486,3.635,8.121,8.121,8.121s8.121-3.635,8.121-8.121V70.993c0-3.447,2.803-6.25,6.249-6.25h0.581
				c3.447,0,6.25,2.805,6.25,6.25v41.358c0,0.06,0.001,0.117,0.002,0.177c0.494,22.744-4.005,57.851-15.554,64.686
				c-2.469,1.462-3.985,4.119-3.985,6.989v29.288h-77.383v-19.51c0-2.543-1.191-4.939-3.217-6.474
				c-22.751-17.235-24.47-26.667-26.647-38.608c-1.637-8.977-3.492-19.153-13.144-32.38c-9.656-13.234-8.813-20.849-6.934-23.2
				c3.226-2.465,5.627-2.366,7.368-1.992c8.766,1.882,18.883,16.132,23.201,24.676C370.988,120.006,375.866,121.619,379.872,119.606
				z M265.424,33.094h102.97c-0.172,1.12-0.289,2.259-0.289,3.426v0.601v40.761v9.156c-5.285-5.371-11.7-10.032-18.894-11.584
				c-7.51-1.621-14.904,0.284-21.372,5.514c-0.056,0.045-0.113,0.091-0.167,0.139c-0.711,0.607-17.177,15.217,4.545,44.988
				c2.343,3.212,4.086,6.157,5.419,8.934h-72.211V33.094z M229.733,33.094h19.447v101.933h-19.447V33.094z M22.491,98.333
				c-3.446,0-6.248-2.804-6.248-6.249v-0.585c0-3.446,2.802-6.248,6.248-6.248h11.657c0.781,0.082,1.571,0.128,2.372,0.128h17.815
				c0.476,0,0.94-0.05,1.395-0.128h50.255c4.486,0,8.121-3.635,8.121-8.121s-3.635-8.121-8.121-8.121H50.299
				c-0.475,0-0.94,0.05-1.394,0.128h-0.186c-0.454-0.078-0.918-0.128-1.394-0.128H35.26c-2.844-0.585-4.988-3.107-4.988-6.121
				v-0.579c0-3.446,2.804-6.248,6.249-6.248h28.657h5.816h34.993c4.486,0,8.121-3.635,8.121-8.121s-3.635-8.121-8.121-8.121H70.993
				c-3.447,0-6.249-2.804-6.249-6.249v-0.583c0-3.446,2.804-6.249,6.249-6.249h41.358c0.06,0,0.117-0.001,0.177-0.002
				c22.747-0.496,57.851,4.005,64.686,15.554c1.462,2.469,4.119,3.985,6.989,3.985h29.288v77.382h-19.51
				c-2.543,0-4.939,1.191-6.474,3.217c-17.236,22.752-26.667,24.471-38.608,26.648c-8.977,1.636-19.153,3.492-32.38,13.143
				c-13.231,9.655-20.847,8.812-23.2,6.935c-2.465-3.225-2.365-5.623-1.991-7.368c1.881-8.767,16.136-18.884,24.678-23.202
				c4.001-2.015,5.615-6.893,3.603-10.898c-1.522-3.028-4.68-4.688-7.862-4.452c-0.152-0.009-0.301-0.023-0.455-0.023H77.881H37.12
				h-0.601c-3.446,0-6.249-2.805-6.249-6.25v-0.579c0-3.446,2.804-6.249,6.249-6.249c0.102,0,0.2-0.012,0.3-0.015
				c0.101,0.003,0.199,0.015,0.3,0.015h68.865c4.486,0,8.121-3.635,8.121-8.121s-3.635-8.121-8.121-8.121H37.12
				c-0.102,0-0.2,0.012-0.3,0.015c-0.101-0.003-0.199-0.015-0.3-0.015H22.491z M135.027,246.577H33.095V143.609
				c1.12,0.172,2.257,0.289,3.424,0.289h0.601h40.761h9.156c-5.371,5.285-10.032,11.699-11.584,18.893
				c-1.622,7.514,0.284,14.904,5.513,21.372c0.045,0.056,0.092,0.113,0.14,0.167c0.368,0.431,5.876,6.647,16.782,6.647
				c7.094-0.001,16.474-2.631,28.206-11.192c3.213-2.343,6.158-4.086,8.935-5.419v72.212H135.027z M135.027,262.82
				c0,0,0,19.446,0,19.446H33.095V262.82H135.027z M173.597,418.681c-3.225,2.468-5.624,2.369-7.367,1.992
				c-8.767-1.882-18.884-16.136-23.202-24.679c-2.014-4.001-6.892-5.611-10.898-3.603c-3.028,1.521-4.688,4.679-4.452,7.86
				c-0.009,0.152-0.023,0.301-0.023,0.456v33.412v40.761v0.601c0,3.446-2.804,6.248-6.25,6.248h-0.581
				c-3.446,0-6.248-2.802-6.248-6.248c0-0.102-0.012-0.2-0.015-0.3c0.003-0.101,0.015-0.199,0.015-0.3v-68.864
				c0-4.486-3.635-8.121-8.121-8.121s-8.121,3.635-8.121,8.121v68.864c0,0.102,0.012,0.2,0.015,0.3
				c-0.003,0.101-0.015,0.199-0.015,0.3v14.029c0,3.446-2.804,6.248-6.249,6.248h-0.583c-3.446,0-6.248-2.802-6.248-6.248v-11.663
				c0.081-0.779,0.127-1.566,0.127-2.366v-17.815c0-0.474-0.049-0.936-0.127-1.387v-50.262c0-4.486-3.635-8.121-8.121-8.121
				s-8.121,3.635-8.121,8.121v55.686c0,0.474,0.049,0.936,0.127,1.387v0.199c-0.078,0.452-0.127,0.914-0.127,1.387v12.062
				c-0.583,2.845-3.107,4.991-6.121,4.991h-0.582c-3.446,0-6.248-2.802-6.248-6.248v-28.657v-5.816v-34.991
				c0-4.486-3.635-8.121-8.121-8.121s-8.121,3.635-8.121,8.121v34.991c0,3.447-2.805,6.25-6.25,6.25h-0.58
				c-3.446,0-6.249-2.805-6.249-6.25v-41.358c0-0.057-0.001-0.117-0.002-0.173c-0.478-22.756,4.033-57.869,15.553-64.689
				c2.469-1.462,3.985-4.119,3.985-6.989v-29.288h77.383v19.51c0,2.543,1.191,4.939,3.217,6.474
				c22.751,17.235,24.47,26.668,26.647,38.608c0.43,2.365,0.881,4.817,1.481,7.382c0.002,0.01,0.005,0.018,0.008,0.028
				c1.678,7.164,4.555,15.239,11.654,24.97C176.318,408.714,175.476,416.329,173.597,418.681z M282.266,478.904H262.82V376.972
				h19.446V478.904z M290.388,360.73H169.599c-0.034-0.181-0.066-0.362-0.1-0.541c-2.374-13.021-4.826-26.468-29.601-46.148v-15.53
				h3.25c4.486,0,8.121-3.635,8.121-8.121v-120.79c0.181-0.032,0.361-0.066,0.541-0.1c13.02-2.374,26.468-4.826,46.148-29.602h15.53
				v3.251c0,4.486,3.635,8.121,8.121,8.121h120.789c0.033,0.181,0.066,0.362,0.1,0.543c2.374,13.021,4.826,26.468,29.601,46.148
				v15.53h-3.251c-4.486,0-8.121,3.635-8.121,8.121V342.4c-0.181,0.034-0.36,0.066-0.54,0.1
				c-13.021,2.374-26.469,4.826-46.148,29.602h-15.531v-3.25C298.509,364.365,294.874,360.73,290.388,360.73z M495.758,420.497
				c0,3.446-2.802,6.247-6.248,6.247h-11.658c-0.781-0.082-1.57-0.128-2.371-0.128h-17.815c-0.475,0-0.94,0.05-1.394,0.128h-50.257
				c-4.486,0-8.121,3.635-8.121,8.121s3.635,8.121,8.121,8.121h55.687c0.476,0,0.94-0.05,1.395-0.128h0.184
				c0.455,0.078,0.918,0.128,1.395,0.128h12.066c2.844,0.585,4.987,3.107,4.987,6.121v0.583h-0.001c0,3.446-2.802,6.248-6.248,6.248
				h-28.657h-5.815h-34.994c-4.486,0-8.121,3.635-8.121,8.121c0,4.486,3.635,8.121,8.121,8.121h34.994
				c3.447,0,6.249,2.805,6.249,6.25v0.581c0,3.446-2.804,6.249-6.249,6.249h-41.36c-0.06,0-0.117,0.001-0.177,0.002
				c-17.709,0.383-42.913-2.261-56.43-8.902c-0.214-0.297-0.417-0.598-0.599-0.904c-1.155-1.953-3.279-3.17-5.549-3.184
				c-0.855-0.814-1.577-1.665-2.108-2.564c-1.462-2.469-4.119-3.985-6.989-3.985h-29.288v-77.382h19.511
				c2.543,0,4.938-1.191,6.473-3.217c17.235-22.752,26.667-24.471,38.607-26.648c8.978-1.636,19.151-3.492,32.38-13.143
				c13.231-9.655,20.847-8.813,23.2-6.935c2.466,3.225,2.367,5.623,1.992,7.368c-1.881,8.766-16.131,18.882-24.675,23.201
				c-4.004,2.014-5.619,6.893-3.606,10.9c1.518,3.026,4.671,4.683,7.851,4.452c0.156,0.009,0.308,0.023,0.466,0.023h33.409h40.762
				h0.601c3.446,0,6.248,2.803,6.248,6.249v0.58c0,3.446-2.802,6.248-6.248,6.248c-0.102,0-0.2,0.012-0.3,0.015
				c-0.101-0.003-0.199-0.015-0.3-0.015h-68.865c-4.486,0-8.121,3.635-8.121,8.121c0,4.486,3.635,8.121,8.121,8.121h68.865
				c0.102,0,0.2-0.012,0.3-0.015c0.101,0.003,0.199,0.015,0.3,0.015h14.03c3.446,0,6.248,2.804,6.248,6.249V420.497z"/>
			<path d="M227.87,470.259c4.486,0,8.121-3.635,8.121-8.121c0-4.486-3.635-8.121-8.121-8.121h-5.591
				c-4.486,0-8.121,3.635-8.121,8.121c0,4.486,3.635,8.121,8.121,8.121H227.87z"/>
			<path d="M194.613,470.259h5.591c4.486,0,8.121-3.635,8.121-8.121c0-4.486-3.635-8.121-8.121-8.121h-5.591
				c-4.486,0-8.121,3.635-8.121,8.121C186.492,466.623,190.127,470.259,194.613,470.259z"/>
			<path d="M289.722,41.739h-5.591c-4.486,0-8.121,3.635-8.121,8.121c0,4.486,3.635,8.121,8.121,8.121h5.591
				c4.486,0,8.121-3.635,8.121-8.121C297.843,45.374,294.208,41.739,289.722,41.739z"/>
			<path d="M325.509,49.86c0-4.486-3.635-8.121-8.121-8.121h-5.59c-4.486,0-8.121,3.635-8.121,8.121
				c0,4.486,3.635,8.121,8.121,8.121h5.59C321.874,57.982,325.509,54.346,325.509,49.86z"/>
		</g>
	</g>
</g>
<g>
</g>
<g>
</g>
<g>
</g>
<g>
</g>
<g>
</g>
<g>
</g>
<g>
</g>
<g>
</g>
<g>
</g>
<g>
</g>
<g>
</g>
<g>
</g>
<g>
</g>
<g>
</g>
<g>
</g>
</svg>
