<?xml version="1.0" encoding="iso-8859-1"?>
<!-- Generator: Adobe Illustrator 19.0.0, SVG Export Plug-In . SVG Version: 6.00 Build 0)  -->
<svg version="1.1" id="Capa_1" xmlns="http://www.w3.org/2000/svg" xmlns:xlink="http://www.w3.org/1999/xlink" x="0px" y="0px"
	 viewBox="0 0 511.999 511.999" style="enable-background:new 0 0 511.999 511.999;" xml:space="preserve">
<g fill="#007BDF">
	<g>
		<path d="M480.452,48.097H31.548C14.152,48.097,0,62.249,0,79.645v352.71c0,17.396,14.152,31.548,31.548,31.548h448.903
			c17.396,0,31.548-14.152,31.548-31.548V79.645C512,62.249,497.848,48.097,480.452,48.097z M480.452,448.903h-69.348
			c2.979-4.814,4.703-10.483,4.703-16.548V191.87c0-4.142-3.358-7.5-7.5-7.5c-4.142,0-7.5,3.358-7.5,7.5v240.484
			c0,9.125-7.424,16.548-16.548,16.548H138.555c2.979-4.814,4.703-10.483,4.703-16.548V288.064c0-4.142-3.358-7.5-7.5-7.5
			c-4.142,0-7.5,3.358-7.5,7.5v144.291c0,9.125-7.424,16.548-16.549,16.548H31.548c-7.414,0-13.705-4.901-15.803-11.633
			c-0.484-1.554-0.745-3.205-0.745-4.916V272.032c0-9.125,7.423-16.548,16.548-16.548h64.129c4.142,0,7.5-3.358,7.5-7.5
			c0-4.142-3.358-7.5-7.5-7.5H31.548c-6.065,0-11.734,1.725-16.548,4.703v-69.348c0-9.125,7.424-16.548,16.548-16.548h336.677
			c4.142,0,7.5-3.358,7.5-7.5c0-4.142-3.358-7.5-7.5-7.5H31.548c-6.065,0-11.734,1.725-16.548,4.703V79.645
			c0-9.125,7.423-16.548,16.548-16.548h448.903c9.125,0,16.548,7.423,16.548,16.548v352.71H497
			C497,441.48,489.577,448.903,480.452,448.903z"/>
	</g>
</g>
<g>
	<g fill="#007BDF">
		<path d="M167.823,208.419h-24.048c-4.142,0-7.5,3.358-7.5,7.5c0,4.142,3.358,7.5,7.5,7.5h5.942L87.146,285.99v-5.942
			c0-4.142-3.358-7.5-7.5-7.5c-4.142,0-7.5,3.358-7.5,7.5v24.048c0,4.142,3.358,7.5,7.5,7.5h24.048c4.142,0,7.5-3.358,7.5-7.5
			c0-4.142-3.358-7.5-7.5-7.5h-5.941l62.571-62.571v5.942c0,4.142,3.358,7.5,7.5,7.5c4.142,0,7.5-3.358,7.5-7.5v-24.048
			C175.323,211.777,171.965,208.419,167.823,208.419z"/>
	</g>
</g>
<g fill="#007BDF">
	<g>
		<path d="M440.371,112.226h-24.048c-4.142,0-7.5,3.358-7.5,7.5c0,4.142,3.358,7.5,7.5,7.5h5.942l-62.571,62.571v-5.942
			c0-4.142-3.358-7.5-7.5-7.5c-4.142,0-7.5,3.358-7.5,7.5v24.048c0,4.142,3.358,7.5,7.5,7.5h24.048c4.142,0,7.5-3.358,7.5-7.5
			c0-4.142-3.358-7.5-7.5-7.5H370.3l62.571-62.571v5.942c0,4.142,3.358,7.5,7.5,7.5c4.142,0,7.5-3.358,7.5-7.5v-24.049
			C447.871,115.583,444.513,112.226,440.371,112.226z"/>
	</g>
</g>
<g>
</g>
<g>
</g>
<g>
</g>
<g>
</g>
<g>
</g>
<g>
</g>
<g>
</g>
<g>
</g>
<g>
</g>
<g>
</g>
<g>
</g>
<g>
</g>
<g>
</g>
<g>
</g>
<g>
</g>
</svg>
