<?xml version="1.0" encoding="iso-8859-1"?>
<!-- Generator: Adobe Illustrator 19.0.0, SVG Export Plug-In . SVG Version: 6.00 Build 0)  -->
<svg version="1.1" id="Capa_1" xmlns="http://www.w3.org/2000/svg" xmlns:xlink="http://www.w3.org/1999/xlink" x="0px" y="0px"
	 viewBox="0 0 511.999 511.999" style="enable-background:new 0 0 511.999 511.999;" xml:space="preserve">
<g fill="#00CBFF">
  <g>
	<g>
		<path d="M480.452,48.097H31.548C14.152,48.097,0,62.249,0,79.645v352.71c0,17.396,14.152,31.548,31.548,31.548h448.903
			c17.396,0,31.548-14.152,31.548-31.548V79.645C512,62.249,497.848,48.097,480.452,48.097z M497,432.355
			c0,9.125-7.423,16.548-16.548,16.548H207.387V320.129c0-4.142-3.358-7.5-7.5-7.5c-4.142,0-7.5,3.358-7.5,7.5v128.774H31.548
			c-9.125,0-16.548-7.423-16.548-16.548V127.226h177.387V256c0,4.142,3.358,7.5,7.5,7.5c4.142,0,7.5-3.358,7.5-7.5V127.226h184.887
			c4.142,0,7.5-3.358,7.5-7.5c0-4.142-3.358-7.5-7.5-7.5H15V79.645c0-9.125,7.423-16.548,16.548-16.548h448.903
			c9.125,0,16.548,7.423,16.548,16.548v32.581h-72.662c-4.142,0-7.5,3.358-7.5,7.5c0,4.142,3.358,7.5,7.5,7.5H497V432.355z"/>
	</g>
</g>
<g>
	<g>
		<path d="M39.645,80.161h-0.08c-4.142,0-7.46,3.358-7.46,7.5c0,4.142,3.398,7.5,7.54,7.5c4.142,0,7.5-3.358,7.5-7.5
			C47.145,83.519,43.787,80.161,39.645,80.161z"/>
	</g>
</g>
<g>
	<g>
		<path d="M103.774,80.161h-0.081c-4.142,0-7.46,3.358-7.46,7.5c0,4.142,3.398,7.5,7.541,7.5s7.5-3.358,7.5-7.5
			C111.274,83.519,107.916,80.161,103.774,80.161z"/>
	</g>
</g>
<g>
	<g>
		<path d="M71.709,80.161h-0.08c-4.142,0-7.46,3.358-7.46,7.5c0,4.142,3.398,7.5,7.54,7.5c4.142,0,7.5-3.358,7.5-7.5
			C79.209,83.519,75.851,80.161,71.709,80.161z"/>
	</g>
</g>
<g>
	<g>
		<path d="M392.274,80.161H135.758c-4.142,0-7.5,3.358-7.5,7.5c0,4.142,3.358,7.5,7.5,7.5h256.516c4.142,0,7.5-3.358,7.5-7.5
			C399.774,83.519,396.417,80.161,392.274,80.161z"/>
	</g>
</g>
<g>
	<g>
		<path d="M472.436,80.161h-48.097c-4.142,0-7.5,3.358-7.5,7.5c0,4.142,3.358,7.5,7.5,7.5h48.097c4.142,0,7.5-3.358,7.5-7.5
			C479.936,83.519,476.578,80.161,472.436,80.161z"/>
	</g>
</g>
<g>
	<g>
		<path d="M277.335,282.761l-24.048-24.048c-2.929-2.929-7.678-2.929-10.606,0c-2.929,2.929-2.929,7.678,0,10.606l11.245,11.245
			H145.849l11.245-11.245c2.929-2.929,2.929-7.678,0-10.606c-2.929-2.93-7.678-2.929-10.606,0l-24.049,24.048
			c-1.407,1.406-2.197,3.314-2.197,5.303s0.79,3.897,2.197,5.303l24.049,24.048c1.464,1.464,3.384,2.197,5.303,2.197
			c1.919,0,3.839-0.732,5.303-2.197c2.929-2.929,2.929-7.678,0-10.606l-11.245-11.245h108.077l-11.245,11.245
			c-2.929,2.929-2.929,7.678,0,10.606c1.464,1.464,3.384,2.197,5.303,2.197s3.839-0.732,5.303-2.197l24.048-24.048
			C280.264,290.438,280.264,285.689,277.335,282.761z"/>
	</g>
</g>
<g>
	<g>
		<path d="M159.807,152.305H47.581c-4.142,0-7.5,3.358-7.5,7.5v48.097c0,4.142,3.357,7.5,7.5,7.5h112.226c4.142,0,7.5-3.358,7.5-7.5
			v-48.097C167.307,155.664,163.949,152.305,159.807,152.305z M152.307,200.404H55.081v-33.097h97.226V200.404z"/>
	</g>
</g>
<g>
	<g>
		<path d="M127.742,232.468H47.581c-4.142,0-7.5,3.358-7.5,7.5c0,4.142,3.357,7.5,7.5,7.5h80.161c4.142,0,7.5-3.358,7.5-7.5
			C135.242,235.826,131.884,232.468,127.742,232.468z"/>
	</g>
</g>
<g>
	<g>
		<path d="M95.677,264.532H47.581c-4.142,0-7.5,3.358-7.5,7.5c0,4.142,3.358,7.5,7.5,7.5h48.097c4.141,0,7.499-3.358,7.499-7.5
			C103.177,267.89,99.819,264.532,95.677,264.532z"/>
	</g>
</g>
<g>
	<g>
		<path d="M71.629,320.645H47.581c-4.142,0-7.5,3.358-7.5,7.5c0,4.142,3.358,7.5,7.5,7.5h24.048c4.142,0,7.5-3.358,7.5-7.5
			C79.129,324.003,75.771,320.645,71.629,320.645z"/>
	</g>
</g>
<g>
	<g>
		<path d="M71.629,384.774H47.581c-4.142,0-7.5,3.358-7.5,7.5c0,4.142,3.358,7.5,7.5,7.5h24.048c4.142,0,7.5-3.358,7.5-7.5
			C79.129,388.132,75.771,384.774,71.629,384.774z"/>
	</g>
</g>
<g>
	<g>
		<path d="M71.629,352.709H47.581c-4.142,0-7.5,3.358-7.5,7.5c0,4.142,3.358,7.5,7.5,7.5h24.048c4.142,0,7.5-3.358,7.5-7.5
			C79.129,356.067,75.771,352.709,71.629,352.709z"/>
	</g>
</g>
<g>
	<g>
		<path d="M119.725,320.645h-16.032c-4.142,0-7.5,3.358-7.5,7.5c0,4.142,3.358,7.5,7.5,7.5h16.032c4.142,0,7.5-3.358,7.5-7.5
			C127.225,324.003,123.867,320.645,119.725,320.645z"/>
	</g>
</g>
<g>
	<g>
		<path d="M167.823,384.774h-64.129c-4.142,0-7.5,3.358-7.5,7.5c0,4.142,3.358,7.5,7.5,7.5h64.129c4.142,0,7.5-3.358,7.5-7.5
			C175.323,388.132,171.965,384.774,167.823,384.774z"/>
	</g>
</g>
<g>
	<g>
		<path d="M167.823,352.709h-64.129c-4.142,0-7.5,3.358-7.5,7.5c0,4.142,3.358,7.5,7.5,7.5h64.129c4.142,0,7.5-3.358,7.5-7.5
			C175.323,356.067,171.965,352.709,167.823,352.709z"/>
	</g>
</g>
<g>
	<g>
		<path d="M256,184.37h-16.032c-4.142,0-7.5,3.358-7.5,7.5c0,4.142,3.358,7.5,7.5,7.5H256c4.142,0,7.5-3.358,7.5-7.5
			C263.5,187.729,260.142,184.37,256,184.37z"/>
	</g>
</g>
<g>
	<g>
		<path d="M256,152.307h-16.032c-4.142,0-7.5,3.358-7.5,7.5c0,4.142,3.358,7.5,7.5,7.5H256c4.142,0,7.5-3.358,7.5-7.5
			C263.5,155.665,260.142,152.307,256,152.307z"/>
	</g>
</g>
<g>
	<g>
		<path d="M392.274,152.307h-104.21c-4.142,0-7.5,3.358-7.5,7.5c0,4.142,3.358,7.5,7.5,7.5h104.21c4.142,0,7.5-3.358,7.5-7.5
			C399.774,155.665,396.416,152.307,392.274,152.307z"/>
	</g>
</g>
<g>
	<g>
		<path d="M456.403,184.37H288.064c-4.142,0-7.5,3.358-7.5,7.5c0,4.142,3.358,7.5,7.5,7.5h168.339c4.142,0,7.5-3.358,7.5-7.5
			C463.903,187.729,460.545,184.37,456.403,184.37z"/>
	</g>
</g>
<g>
	<g>
		<path d="M256,400.807h-16.032c-4.142,0-7.5,3.358-7.5,7.5c0,4.142,3.358,7.5,7.5,7.5H256c4.142,0,7.5-3.358,7.5-7.5
			C263.5,404.165,260.142,400.807,256,400.807z"/>
	</g>
</g>
<g>
	<g>
		<path d="M256,368.742h-16.032c-4.142,0-7.5,3.358-7.5,7.5c0,4.142,3.358,7.5,7.5,7.5H256c4.142,0,7.5-3.358,7.5-7.5
			C263.5,372.1,260.142,368.742,256,368.742z"/>
	</g>
</g>
<g>
	<g>
		<path d="M392.274,368.742h-104.21c-4.142,0-7.5,3.358-7.5,7.5c0,4.142,3.358,7.5,7.5,7.5h104.21c4.142,0,7.5-3.358,7.5-7.5
			C399.774,372.1,396.416,368.742,392.274,368.742z"/>
	</g>
</g>
<g>
	<g>
		<path d="M424.339,400.807H288.064c-4.142,0-7.5,3.358-7.5,7.5c0,4.142,3.358,7.5,7.5,7.5h136.274c4.142,0,7.5-3.358,7.5-7.5
			C431.838,404.165,428.481,400.807,424.339,400.807z"/>
	</g>
</g>
<g>
	<g>
		<path d="M256,336.677h-16.032c-4.142,0-7.5,3.358-7.5,7.5c0,4.142,3.358,7.5,7.5,7.5H256c4.142,0,7.5-3.358,7.5-7.5
			C263.5,340.035,260.142,336.677,256,336.677z"/>
	</g>
</g>
<g>
	<g>
		<path d="M392.274,304.613h-88.178c-4.142,0-7.5,3.358-7.5,7.5c0,4.142,3.358,7.5,7.5,7.5h88.178c4.142,0,7.5-3.358,7.5-7.5
			C399.774,307.971,396.416,304.613,392.274,304.613z"/>
	</g>
</g>
<g>
	<g>
		<path d="M424.339,336.677H288.064c-4.142,0-7.5,3.358-7.5,7.5c0,4.142,3.358,7.5,7.5,7.5h136.274c4.142,0,7.5-3.358,7.5-7.5
			C431.838,340.035,428.481,336.677,424.339,336.677z"/>
	</g>
</g>
<g>
	<g>
		<path d="M256,224.451h-16.032c-4.142,0-7.5,3.358-7.5,7.5c0,4.142,3.358,7.5,7.5,7.5H256c4.142,0,7.5-3.358,7.5-7.5
			C263.5,227.81,260.142,224.451,256,224.451z"/>
	</g>
</g>
<g>
	<g>
		<path d="M424.338,224.451H288.064c-4.142,0-7.5,3.358-7.5,7.5c0,4.142,3.358,7.5,7.5,7.5h136.274c4.142,0,7.5-3.358,7.5-7.5
			C431.838,227.81,428.48,224.451,424.338,224.451z"/>
	</g>
</g>
<g>
	<g>
		<path d="M456.403,256.516H304.097c-4.142,0-7.5,3.358-7.5,7.5c0,4.142,3.358,7.5,7.5,7.5h152.307c4.142,0,7.5-3.358,7.5-7.5
			C463.904,259.874,460.545,256.516,456.403,256.516z"/>
	</g>
</g>
<g>
</g>
<g>
</g>
<g>
</g>
<g>
</g>
<g>
</g>
<g>
</g>
<g>
</g>
<g>
</g>
<g>
</g>
<g>
</g>
<g>
</g>
<g>
</g>
<g>
</g>
<g>
</g>
<g>
</g>
  </g>
</svg>
