<svg xmlns="http://www.w3.org/2000/svg" viewBox="0 0 511.999 511.999"><g fill="#00CBFF"><path d="M480.452 48.097H31.548C14.152 48.097 0 62.249 0 79.645v352.71c0 17.396 14.152 31.548 31.548 31.548h448.903c17.396 0 31.548-14.152 31.548-31.548V79.645c.001-17.396-14.151-31.548-31.547-31.548zM497 432.355c0 9.125-7.423 16.548-16.548 16.548H207.387V320.129a7.5 7.5 0 0 0-15 0v128.774H31.548c-9.125 0-16.548-7.423-16.548-16.548V127.226h177.387V256a7.5 7.5 0 0 0 15 0V127.226h184.887a7.5 7.5 0 0 0 0-15H15V79.645c0-9.125 7.423-16.548 16.548-16.548h448.903c9.125 0 16.548 7.423 16.548 16.548v32.581h-72.662a7.5 7.5 0 0 0 0 15H497v305.129z"/><path d="M39.645 80.161h-.08c-4.142 0-7.46 3.358-7.46 7.5 0 4.142 3.398 7.5 7.54 7.5a7.5 7.5 0 0 0 0-15zm64.129 0h-.081c-4.142 0-7.46 3.358-7.46 7.5 0 4.142 3.398 7.5 7.541 7.5s7.5-3.358 7.5-7.5a7.5 7.5 0 0 0-7.5-7.5zm-32.065 0h-.08c-4.142 0-7.46 3.358-7.46 7.5 0 4.142 3.398 7.5 7.54 7.5a7.5 7.5 0 0 0 0-15zm320.565 0H135.758a7.5 7.5 0 0 0 0 15h256.516a7.5 7.5 0 0 0 0-15zm80.162 0h-48.097a7.5 7.5 0 0 0 0 15h48.097a7.5 7.5 0 0 0 0-15zm-195.101 202.6l-24.048-24.048a7.5 7.5 0 0 0-10.606 0 7.5 7.5 0 0 0 0 10.606l11.245 11.245H145.849l11.245-11.245a7.5 7.5 0 0 0 0-10.606 7.498 7.498 0 0 0-10.606 0l-24.049 24.048a7.497 7.497 0 0 0 0 10.606l24.049 24.048a7.478 7.478 0 0 0 5.303 2.197 7.474 7.474 0 0 0 5.303-2.197 7.5 7.5 0 0 0 0-10.606l-11.245-11.245h108.077l-11.245 11.245a7.5 7.5 0 0 0 5.303 12.803 7.474 7.474 0 0 0 5.303-2.197l24.048-24.048a7.5 7.5 0 0 0 0-10.606zM159.807 152.305H47.581a7.5 7.5 0 0 0-7.5 7.5v48.097a7.5 7.5 0 0 0 7.5 7.5h112.226a7.5 7.5 0 0 0 7.5-7.5v-48.097a7.5 7.5 0 0 0-7.5-7.5zm-7.5 48.099H55.081v-33.097h97.226v33.097zm-24.565 32.064H47.581a7.5 7.5 0 0 0 0 15h80.161a7.5 7.5 0 0 0 0-15zm-32.065 32.064H47.581a7.5 7.5 0 0 0 0 15h48.097a7.5 7.5 0 0 0-.001-15zm-24.048 56.113H47.581a7.5 7.5 0 0 0 0 15h24.048a7.5 7.5 0 0 0 0-15zm0 64.129H47.581a7.5 7.5 0 0 0 0 15h24.048a7.5 7.5 0 0 0 0-15zm0-32.065H47.581a7.5 7.5 0 0 0 0 15h24.048a7.5 7.5 0 0 0 0-15zm48.096-32.064h-16.032a7.5 7.5 0 0 0 0 15h16.032a7.5 7.5 0 0 0 0-15zm48.098 64.129h-64.129a7.5 7.5 0 0 0 0 15h64.129a7.5 7.5 0 0 0 0-15zm0-32.065h-64.129a7.5 7.5 0 0 0 0 15h64.129a7.5 7.5 0 0 0 0-15zM256 184.37h-16.032a7.5 7.5 0 0 0 0 15H256a7.5 7.5 0 0 0 0-15zm0-32.063h-16.032a7.5 7.5 0 0 0 0 15H256a7.5 7.5 0 0 0 0-15zm136.274 0h-104.21a7.5 7.5 0 0 0 0 15h104.21a7.5 7.5 0 0 0 0-15zm64.129 32.063H288.064a7.5 7.5 0 0 0 0 15h168.339a7.5 7.5 0 0 0 0-15zM256 400.807h-16.032a7.5 7.5 0 0 0 0 15H256a7.5 7.5 0 0 0 0-15zm0-32.065h-16.032a7.5 7.5 0 0 0 0 15H256a7.5 7.5 0 0 0 0-15zm136.274 0h-104.21a7.5 7.5 0 0 0 0 15h104.21a7.5 7.5 0 0 0 0-15zm32.065 32.065H288.064a7.5 7.5 0 0 0 0 15h136.274a7.5 7.5 0 0 0 .001-15zM256 336.677h-16.032a7.5 7.5 0 0 0 0 15H256a7.5 7.5 0 0 0 0-15zm136.274-32.064h-88.178a7.5 7.5 0 0 0 0 15h88.178a7.5 7.5 0 0 0 0-15zm32.065 32.064H288.064a7.5 7.5 0 0 0 0 15h136.274a7.5 7.5 0 0 0 .001-15zM256 224.451h-16.032a7.5 7.5 0 0 0 0 15H256a7.5 7.5 0 0 0 0-15zm168.338 0H288.064a7.5 7.5 0 0 0 0 15h136.274a7.5 7.5 0 0 0 0-15zm32.065 32.065H304.097a7.5 7.5 0 0 0 0 15h152.307a7.5 7.5 0 1 0-.001-15z"/></g></svg>