<svg xmlns="http://www.w3.org/2000/svg" viewBox="0 0 276 100"><path d="M5 0a5 5 0 0 0-5 5v25h65V0z" fill-rule="evenodd" fill="#1d73c9"/><path d="M95 0H70v65h30V5a5 5 0 0 0-5-5z" fill="#ce4139" fill-rule="evenodd"/><path d="M0 35v60a5 5 0 0 0 5 5h25V35z" fill="#25c9ff" fill-rule="evenodd"/><path d="M35 70v30h60a5 5 0 0 0 5-5V70z" fill="#fba905" fill-rule="evenodd"/><path d="M136.46 65H114V26.48h22.46v6.7h-14.19v8.46h13.21v6.7h-13.21v9.94h14.19zm39.14-19.62q0 9.52-5.48 14.58T154.28 65h-11V26.48h12.24q9.56 0 14.84 5t5.24 13.9zm-8.59.21q0-12.4-11.1-12.41h-4.4v25.1h3.54q11.95 0 11.95-12.69zm40.63-10.04v4.09L203 40.82a8 8 0 0 1 1.28 4.43 8.91 8.91 0 0 1-3.35 7.4c-2.23 1.76-5.33 2.65-9.3 2.65l-1.47-.08-1.2-.13a2.67 2.67 0 0 0-1.25 2.11q0 1.74 4.48 1.74h5.07c3.27 0 5.77.69 7.48 2.08a7.4 7.4 0 0 1 2.58 6.12 9.06 9.06 0 0 1-4.36 8Q198.57 78 190.4 78q-6.24 0-9.54-2.15a6.79 6.79 0 0 1-3.29-6 6.28 6.28 0 0 1 1.68-4.46 9.53 9.53 0 0 1 4.93-2.56 5.4 5.4 0 0 1-2.18-1.74 4 4 0 0 1-.94-2.55 4.1 4.1 0 0 1 1-2.81 11.64 11.64 0 0 1 2.85-2.2 8 8 0 0 1-3.72-3.22 9.72 9.72 0 0 1-1.37-5.22 9.18 9.18 0 0 1 3.18-7.46c2.12-1.76 5.14-2.63 9.07-2.63a23.35 23.35 0 0 1 3 .22c1.15.15 1.88.26 2.2.33zm-23 33.64a2.91 2.91 0 0 0 1.61 2.61 8.93 8.93 0 0 0 4.53 1 16.19 16.19 0 0 0 6.85-1.18c1.66-.79 2.49-1.88 2.49-3.25a2.29 2.29 0 0 0-1.5-2.37 12.21 12.21 0 0 0-4.54-.63h-4.21a6.38 6.38 0 0 0-3.75 1 3.18 3.18 0 0 0-1.51 2.82zm3-24a6 6 0 0 0 1.11 3.8 4 4 0 0 0 3.37 1.39 4 4 0 0 0 3.3-1.38 6.14 6.14 0 0 0 1.06-3.8c0-3.55-1.47-5.33-4.43-5.33s-4.48 1.78-4.48 5.33zM227.83 35a13.08 13.08 0 0 1 2.74.23l-.57 7.54a9.73 9.73 0 0 0-2.4-.26 8.68 8.68 0 0 0-6.07 2 7.09 7.09 0 0 0-2.21 5.49v15h-8.14V35.55h6.16l1.2 5h.4a11.16 11.16 0 0 1 3.75-4 9.33 9.33 0 0 1 5.14-1.55zm6.45-7.07c0-2.62 1.47-3.93 4.43-3.93s4.43 1.31 4.43 3.93a3.78 3.78 0 0 1-1.14 2.91 4.67 4.67 0 0 1-3.32 1c-2.93.04-4.4-1.27-4.4-3.91zM242.76 65h-8.13V35.55h8.13zm16.62.55a9.72 9.72 0 0 1-8.26-4q-3-4-3-11.18t3-11.3a10 10 0 0 1 8.42-4 9.75 9.75 0 0 1 8.59 4.32h.27a32.44 32.44 0 0 1-.61-5.88V24H276v41h-6.24l-1.58-3.83h-.34q-2.77 4.38-8.46 4.38zm2.85-6.4a5.55 5.55 0 0 0 4.58-1.8q1.45-1.79 1.59-6.09v-.87c0-3.16-.5-5.43-1.48-6.8s-2.6-2.06-4.82-2.06a4.8 4.8 0 0 0-4.23 2.28 12.15 12.15 0 0 0-1.51 6.64q0 4.35 1.52 6.52a5 5 0 0 0 4.35 2.18z" fill="#20292e"/></svg>