<svg xmlns="http://www.w3.org/2000/svg" viewBox="0 0 511.999 511.999"><g fill="#FBA905"><path d="M480.452 48.096H31.548C14.152 48.096 0 62.248 0 79.645v352.709c0 17.396 14.152 31.549 31.548 31.549h448.903c17.396 0 31.548-14.152 31.548-31.549V79.645c.001-17.397-14.151-31.549-31.547-31.549zM497 432.354c0 9.124-7.423 16.548-16.548 16.548H31.548c-9.125 0-16.548-7.424-16.548-16.549V127.225h377.274a7.5 7.5 0 0 0 0-15H15v-32.58c0-9.125 7.423-16.549 16.548-16.549h448.903c9.125 0 16.548 7.424 16.548 16.549v32.58h-72.662a7.5 7.5 0 0 0 0 15H497v305.129z"/><path d="M39.645 80.16h-.08c-4.142 0-7.46 3.358-7.46 7.5 0 4.143 3.398 7.5 7.54 7.5a7.5 7.5 0 1 0 0-15zm64.129 0h-.081c-4.142 0-7.46 3.358-7.46 7.5 0 4.143 3.398 7.5 7.541 7.5s7.5-3.357 7.5-7.5a7.5 7.5 0 0 0-7.5-7.5zm-32.065 0h-.08c-4.142 0-7.46 3.358-7.46 7.5 0 4.143 3.398 7.5 7.54 7.5a7.5 7.5 0 1 0 0-15zm320.565 0H135.758a7.5 7.5 0 0 0 0 15h256.516a7.5 7.5 0 0 0 0-15zm80.162 0h-48.097a7.5 7.5 0 0 0 0 15h48.097a7.5 7.5 0 0 0 0-15zm-248.5 96.193H79.645c-8.556 0-15.516 6.961-15.516 15.517v80.161c0 8.556 6.96 15.516 15.516 15.516h144.291c8.556 0 15.516-6.96 15.516-15.516V191.87c0-8.556-6.961-15.517-15.516-15.517zm.516 95.678a.516.516 0 0 1-.516.516H79.645a.516.516 0 0 1-.516-.516V191.87c0-.285.231-.517.516-.517h144.291c.285 0 .516.231.516.517v80.161zm7.5 48.614H119.726a7.5 7.5 0 0 0 0 15h112.226a7.5 7.5 0 0 0 0-15zm-144.29 0H71.629a7.5 7.5 0 1 0 0 15h16.033a7.5 7.5 0 0 0 0-15zm144.29 32.064H71.629a7.5 7.5 0 0 0 0 15h160.323a7.5 7.5 0 0 0 0-15zm0 32.064h-48.095a7.5 7.5 0 0 0 0 15h48.095a7.5 7.5 0 0 0 0-15zm-80.161 0H71.629a7.5 7.5 0 0 0 0 15h80.162a7.5 7.5 0 0 0 0-15zm176.352-64.128h-48.095a7.5 7.5 0 1 0 0 15h48.095a7.5 7.5 0 0 0 0-15zm112.228 0h-80.162a7.5 7.5 0 0 0 0 15h80.162a7.5 7.5 0 0 0 0-15zm-8.016-144.292H288.064c-8.556 0-15.516 6.961-15.516 15.517v80.161c0 8.556 6.96 15.516 15.516 15.516h144.291c8.556 0 15.516-6.96 15.516-15.516V191.87c0-8.556-6.96-15.517-15.516-15.517zm0 96.194H288.064a.516.516 0 0 1-.516-.516V191.87c0-.285.231-.517.516-.517h144.291c.285 0 .516.231.516.517v80.161a.516.516 0 0 1-.516.516zm8.016 80.162H280.048a7.5 7.5 0 0 0 0 15h160.323a7.5 7.5 0 0 0 0-15zm0 32.064h-16.033a7.5 7.5 0 0 0 0 15h16.033a7.5 7.5 0 0 0 0-15zm-48.1 0H280.048a7.5 7.5 0 0 0 0 15h112.223a7.5 7.5 0 0 0 0-15z"/></g></svg>