<svg xmlns="http://www.w3.org/2000/svg" viewBox="0 0 512 512"><g fill="#FF3C32"><path d="M49.862 214.158a8.12 8.12 0 0 0-8.121 8.121v5.59c0 4.486 3.635 8.121 8.121 8.121s8.121-3.635 8.121-8.121v-5.59a8.12 8.12 0 0 0-8.121-8.121zm0-27.666a8.12 8.12 0 0 0-8.121 8.121v5.59c0 4.486 3.635 8.121 8.121 8.121s8.121-3.635 8.121-8.121v-5.59a8.12 8.12 0 0 0-8.121-8.121zm420.398 97.639a8.12 8.12 0 0 0-8.121-8.121 8.12 8.12 0 0 0-8.121 8.121v5.59a8.121 8.121 0 0 0 16.242 0v-5.59zm-16.243 27.666v5.59a8.12 8.12 0 0 0 8.121 8.121 8.12 8.12 0 0 0 8.121-8.121v-5.59a8.12 8.12 0 0 0-8.121-8.121 8.12 8.12 0 0 0-8.121 8.121z"/><path d="M496.71 398.605a22.384 22.384 0 0 0 1.26-7.43v-.58c0-3.953-1.033-7.668-2.832-10.899.001-.058.009-.115.009-.174v-74.211c0-4.486-3.635-8.121-8.121-8.121s-8.121 3.635-8.121 8.121v63.082c-1.12-.172-2.258-.289-3.424-.289h-50.52c5.372-5.285 10.033-11.7 11.586-18.894 1.623-7.514-.284-14.904-5.514-21.372a5.343 5.343 0 0 0-.139-.167c-.606-.711-15.216-17.18-44.988 4.546-3.213 2.343-6.157 4.085-8.935 5.419v-72.21h101.933v12.273c0 4.485 3.635 8.121 8.121 8.121s8.121-3.636 8.121-8.121v-56.084a8.12 8.12 0 0 0-8.121-8.121h-5.056v-25.186c8.759-7.624 14.504-21.943 17.502-43.533 2.273-16.362 2.062-31.049 2.035-32.5V70.994c0-12.403-10.09-22.493-22.493-22.493h-.581c-2.168 0-4.264.307-6.249.883V36.52c0-12.401-10.089-22.491-22.491-22.491h-.581c-2.569 0-5.029.454-7.33 1.25C438.766 6.409 430.374 0 420.497 0h-.581c-9.885 0-18.301 6.409-21.311 15.291a22.37 22.37 0 0 0-7.431-1.262h-.58a22.33 22.33 0 0 0-10.942 2.859 8.262 8.262 0 0 0-.726-.037H221.611a8.12 8.12 0 0 0-8.121 8.121v5.057h-25.186c-7.624-8.759-21.943-14.503-43.533-17.502-16.361-2.272-31.05-2.061-32.5-2.035H70.992C58.59 10.493 48.5 20.582 48.5 32.985v.583c0 2.168.308 4.264.883 6.249H36.52c-12.402 0-22.492 10.089-22.492 22.491v.58c0 2.569.454 5.029 1.251 7.33C6.408 73.231 0 81.624 0 91.499v.583c0 9.884 6.409 18.3 15.29 21.311a22.366 22.366 0 0 0-1.262 7.431v.579a22.35 22.35 0 0 0 2.824 10.887v158.098a8.12 8.12 0 0 0 8.121 8.121h5.056v25.186c-8.759 7.624-14.504 21.943-17.501 43.533-2.273 16.363-2.062 31.051-2.035 32.501v41.277c0 12.403 10.089 22.493 22.492 22.493h.58c2.168 0 4.265-.309 6.25-.883v12.862c0 12.401 10.089 22.491 22.491 22.491h.582c2.569 0 5.027-.454 7.329-1.25C73.233 505.591 81.625 512 91.501 512h.582c9.885 0 18.301-6.409 21.311-15.29a22.384 22.384 0 0 0 7.43 1.26h.581c3.948 0 7.656-1.03 10.885-2.823h29.364c4.486 0 8.121-3.635 8.121-8.121s-3.635-8.121-8.121-8.121h-18.045c.171-1.12.289-2.257.289-3.424v-50.518c5.285 5.371 11.699 10.032 18.893 11.584 1.738.376 3.471.563 5.187.563 5.698 0 11.215-2.056 16.185-6.076.057-.045.113-.091.167-.139.711-.606 17.176-15.217-4.546-44.988-2.343-3.213-4.086-6.157-5.419-8.935h72.213v101.932h-59.663c-4.486 0-8.121 3.635-8.121 8.121s3.635 8.121 8.121 8.121h103.474a8.12 8.12 0 0 0 8.121-8.121v-5.057h25.186c7.624 8.759 21.943 14.504 43.533 17.502 13.239 1.838 25.381 2.052 30.302 2.052 1.161 0 1.92-.012 2.197-.017h41.281c12.402 0 22.492-10.089 22.492-22.492v-.581c0-2.168-.309-4.265-.883-6.25h12.862c12.401 0 22.491-10.089 22.491-22.491v-.58c0-2.569-.454-5.028-1.251-7.329 8.871-3.014 15.28-11.406 15.28-21.282v-.583c0-9.886-6.409-18.304-15.29-21.312zm-17.805-149.424H376.972v-19.447h101.933v19.447zm-99.033-129.575a8.118 8.118 0 0 0 4.452-7.856c.009-.154.024-.304.024-.459V36.52a6.255 6.255 0 0 1 6.249-6.248h.579v.001a6.255 6.255 0 0 1 6.249 6.248c0 .102.012.2.015.3-.003.101-.015.199-.015.3v68.864a8.12 8.12 0 0 0 8.121 8.121 8.12 8.12 0 0 0 8.121-8.121V37.121c0-.102-.012-.2-.015-.3.003-.101.015-.199.015-.3v-14.03a6.255 6.255 0 0 1 6.249-6.248h.581a6.254 6.254 0 0 1 6.248 6.248v11.663a22.834 22.834 0 0 0-.127 2.366v17.815c0 .474.049.936.127 1.387v50.262a8.12 8.12 0 0 0 8.121 8.121 8.12 8.12 0 0 0 8.121-8.121V50.3a8.12 8.12 0 0 0-.127-1.387v-.198c.078-.452.127-.914.127-1.387V35.264c.584-2.845 3.107-4.991 6.121-4.991h.581a6.254 6.254 0 0 1 6.248 6.248v69.465c0 4.486 3.635 8.121 8.121 8.121s8.121-3.635 8.121-8.121V70.993a6.256 6.256 0 0 1 6.249-6.25h.581a6.257 6.257 0 0 1 6.25 6.25v41.358l.002.177c.494 22.744-4.005 57.851-15.554 64.686a8.124 8.124 0 0 0-3.985 6.989v29.288h-77.383v-19.51a8.123 8.123 0 0 0-3.217-6.474c-22.751-17.235-24.47-26.667-26.647-38.608-1.637-8.977-3.492-19.153-13.144-32.38-9.656-13.234-8.813-20.849-6.934-23.2 3.226-2.465 5.627-2.366 7.368-1.992 8.766 1.882 18.883 16.132 23.201 24.676 2.022 4.003 6.9 5.616 10.906 3.603zM265.424 33.094h102.97c-.172 1.12-.289 2.259-.289 3.426v50.518c-5.285-5.371-11.7-10.032-18.894-11.584-7.51-1.621-14.904.284-21.372 5.514a4.39 4.39 0 0 0-.167.139c-.711.607-17.177 15.217 4.545 44.988 2.343 3.212 4.086 6.157 5.419 8.934h-72.211V33.094zm-35.691 0h19.447v101.933h-19.447V33.094zM22.491 98.333a6.255 6.255 0 0 1-6.248-6.249v-.585a6.254 6.254 0 0 1 6.248-6.248h11.657c.781.082 1.571.128 2.372.128h17.815c.476 0 .94-.05 1.395-.128h50.255c4.486 0 8.121-3.635 8.121-8.121s-3.635-8.121-8.121-8.121H50.299c-.475 0-.94.05-1.394.128h-.186a8.212 8.212 0 0 0-1.394-.128H35.26a6.259 6.259 0 0 1-4.988-6.121v-.579a6.255 6.255 0 0 1 6.249-6.248h69.466c4.486 0 8.121-3.635 8.121-8.121s-3.635-8.121-8.121-8.121H70.993a6.256 6.256 0 0 1-6.249-6.249v-.583a6.256 6.256 0 0 1 6.249-6.249h41.358l.177-.002c22.747-.496 57.851 4.005 64.686 15.554a8.124 8.124 0 0 0 6.989 3.985h29.288v77.382h-19.51a8.123 8.123 0 0 0-6.474 3.217c-17.236 22.752-26.667 24.471-38.608 26.648-8.977 1.636-19.153 3.492-32.38 13.143-13.231 9.655-20.847 8.812-23.2 6.935-2.465-3.225-2.365-5.623-1.991-7.368 1.881-8.767 16.136-18.884 24.678-23.202a8.121 8.121 0 0 0 3.603-10.898 8.123 8.123 0 0 0-7.862-4.452c-.152-.009-.301-.023-.455-.023H36.519a6.257 6.257 0 0 1-6.249-6.25v-.579a6.256 6.256 0 0 1 6.249-6.249c.102 0 .2-.012.3-.015.101.003.199.015.3.015h68.865c4.486 0 8.121-3.635 8.121-8.121s-3.635-8.121-8.121-8.121H37.12c-.102 0-.2.012-.3.015-.101-.003-.199-.015-.3-.015H22.491zm112.536 148.244H33.095V143.609c1.12.172 2.257.289 3.424.289h50.518c-5.371 5.285-10.032 11.699-11.584 18.893-1.622 7.514.284 14.904 5.513 21.372.045.056.092.113.14.167.368.431 5.876 6.647 16.782 6.647 7.094-.001 16.474-2.631 28.206-11.192 3.213-2.343 6.158-4.086 8.935-5.419v72.212h-.002zm0 16.243v19.446H33.095V262.82h101.932zm38.57 155.861c-3.225 2.468-5.624 2.369-7.367 1.992-8.767-1.882-18.884-16.136-23.202-24.679a8.12 8.12 0 1 0-15.35 4.257c-.009.152-.023.301-.023.456v74.774a6.256 6.256 0 0 1-6.25 6.248h-.581a6.254 6.254 0 0 1-6.248-6.248c0-.102-.012-.2-.015-.3.003-.101.015-.199.015-.3v-68.864c0-4.486-3.635-8.121-8.121-8.121s-8.121 3.635-8.121 8.121v68.864c0 .102.012.2.015.3-.003.101-.015.199-.015.3v14.029a6.255 6.255 0 0 1-6.249 6.248h-.583a6.254 6.254 0 0 1-6.248-6.248v-11.663c.081-.779.127-1.566.127-2.366v-17.815a8.12 8.12 0 0 0-.127-1.387v-50.262c0-4.486-3.635-8.121-8.121-8.121s-8.121 3.635-8.121 8.121v55.686c0 .474.049.936.127 1.387v.199a8.139 8.139 0 0 0-.127 1.387v12.062a6.259 6.259 0 0 1-6.121 4.991h-.582a6.254 6.254 0 0 1-6.248-6.248v-69.464c0-4.486-3.635-8.121-8.121-8.121s-8.121 3.635-8.121 8.121v34.991a6.257 6.257 0 0 1-6.25 6.25h-.58a6.257 6.257 0 0 1-6.249-6.25V399.65l-.002-.173c-.478-22.756 4.033-57.869 15.553-64.689a8.124 8.124 0 0 0 3.985-6.989v-29.288h77.383v19.51a8.123 8.123 0 0 0 3.217 6.474c22.751 17.235 24.47 26.668 26.647 38.608.43 2.365.881 4.817 1.481 7.382l.008.028c1.678 7.164 4.555 15.239 11.654 24.97 9.652 13.231 8.81 20.846 6.931 23.198zm108.669 60.223H262.82V376.972h19.446v101.932zm8.122-118.174H169.599l-.1-.541c-2.374-13.021-4.826-26.468-29.601-46.148v-15.53h3.25a8.12 8.12 0 0 0 8.121-8.121V169.6c.181-.032.361-.066.541-.1 13.02-2.374 26.468-4.826 46.148-29.602h15.53v3.251a8.12 8.12 0 0 0 8.121 8.121h120.789l.1.543c2.374 13.021 4.826 26.468 29.601 46.148v15.53h-3.251a8.12 8.12 0 0 0-8.121 8.121V342.4l-.54.1c-13.021 2.374-26.469 4.826-46.148 29.602h-15.531v-3.25a8.119 8.119 0 0 0-8.12-8.122zm205.37 59.767a6.253 6.253 0 0 1-6.248 6.247h-11.658a22.669 22.669 0 0 0-2.371-.128h-17.815c-.475 0-.94.05-1.394.128h-50.257c-4.486 0-8.121 3.635-8.121 8.121s3.635 8.121 8.121 8.121h55.687c.476 0 .94-.05 1.395-.128h.184c.455.078.918.128 1.395.128h12.066a6.258 6.258 0 0 1 4.987 6.121v.583h-.001a6.254 6.254 0 0 1-6.248 6.248h-69.466a8.12 8.12 0 0 0-8.121 8.121 8.12 8.12 0 0 0 8.121 8.121h34.994a6.257 6.257 0 0 1 6.249 6.25v.581a6.256 6.256 0 0 1-6.249 6.249h-41.36l-.177.002c-17.709.383-42.913-2.261-56.43-8.902a12.392 12.392 0 0 1-.599-.904 6.519 6.519 0 0 0-5.549-3.184c-.855-.814-1.577-1.665-2.108-2.564a8.124 8.124 0 0 0-6.989-3.985h-29.288v-77.382h19.511a8.12 8.12 0 0 0 6.473-3.217c17.235-22.752 26.667-24.471 38.607-26.648 8.978-1.636 19.151-3.492 32.38-13.143 13.231-9.655 20.847-8.813 23.2-6.935 2.466 3.225 2.367 5.623 1.992 7.368-1.881 8.766-16.131 18.882-24.675 23.201a8.12 8.12 0 0 0-3.606 10.9c1.518 3.026 4.671 4.683 7.851 4.452.156.009.308.023.466.023h74.772a6.255 6.255 0 0 1 6.248 6.249v.58a6.254 6.254 0 0 1-6.248 6.248c-.102 0-.2.012-.3.015-.101-.003-.199-.015-.3-.015h-68.865a8.12 8.12 0 0 0-8.121 8.121 8.12 8.12 0 0 0 8.121 8.121h68.865c.102 0 .2-.012.3-.015.101.003.199.015.3.015h14.03a6.255 6.255 0 0 1 6.248 6.249v.587z"/><path d="M227.87 470.259a8.12 8.12 0 0 0 8.121-8.121 8.12 8.12 0 0 0-8.121-8.121h-5.591a8.12 8.12 0 0 0-8.121 8.121 8.12 8.12 0 0 0 8.121 8.121h5.591zm-33.257 0h5.591a8.12 8.12 0 0 0 8.121-8.121 8.12 8.12 0 0 0-8.121-8.121h-5.591a8.12 8.12 0 0 0-8.121 8.121 8.12 8.12 0 0 0 8.121 8.121zm95.109-428.52h-5.591a8.12 8.12 0 0 0-8.121 8.121 8.12 8.12 0 0 0 8.121 8.121h5.591a8.12 8.12 0 0 0 8.121-8.121 8.12 8.12 0 0 0-8.121-8.121zm35.787 8.121a8.12 8.12 0 0 0-8.121-8.121h-5.59a8.12 8.12 0 0 0-8.121 8.121 8.12 8.12 0 0 0 8.121 8.121h5.59a8.12 8.12 0 0 0 8.121-8.121z"/></g></svg>