<svg xmlns="http://www.w3.org/2000/svg" viewBox="0 0 511.999 511.999"><path d="M480.452 48.097H31.548C14.152 48.097 0 62.249 0 79.645v352.71c0 17.396 14.152 31.548 31.548 31.548h448.903c17.396 0 31.548-14.152 31.548-31.548V79.645c.001-17.396-14.151-31.548-31.547-31.548zm0 400.806h-69.348a31.35 31.35 0 0 0 4.703-16.548V191.87a7.5 7.5 0 0 0-15 0v240.484c0 9.125-7.424 16.548-16.548 16.548H138.555a31.35 31.35 0 0 0 4.703-16.548v-144.29a7.5 7.5 0 0 0-15 0v144.291c0 9.125-7.424 16.548-16.549 16.548H31.548c-7.414 0-13.705-4.901-15.803-11.633a16.505 16.505 0 0 1-.745-4.916V272.032c0-9.125 7.423-16.548 16.548-16.548h64.129a7.5 7.5 0 0 0 0-15H31.548A31.358 31.358 0 0 0 15 245.187v-69.348c0-9.125 7.424-16.548 16.548-16.548h336.677a7.5 7.5 0 0 0 0-15H31.548A31.358 31.358 0 0 0 15 148.994V79.645c0-9.125 7.423-16.548 16.548-16.548h448.903c9.125 0 16.548 7.423 16.548 16.548v352.71H497c0 9.125-7.423 16.548-16.548 16.548z" fill="#007BDF"/><path d="M167.823 208.419h-24.048a7.5 7.5 0 0 0 0 15h5.942L87.146 285.99v-5.942a7.5 7.5 0 0 0-15 0v24.048a7.5 7.5 0 0 0 7.5 7.5h24.048a7.5 7.5 0 0 0 0-15h-5.941l62.571-62.571v5.942a7.5 7.5 0 0 0 15 0v-24.048a7.502 7.502 0 0 0-7.501-7.5zm272.548-96.193h-24.048a7.5 7.5 0 0 0 0 15h5.942l-62.571 62.571v-5.942a7.5 7.5 0 0 0-15 0v24.048a7.5 7.5 0 0 0 7.5 7.5h24.048a7.5 7.5 0 0 0 0-15H370.3l62.571-62.571v5.942a7.5 7.5 0 0 0 15 0v-24.049a7.5 7.5 0 0 0-7.5-7.499z" fill="#007BDF"/></svg>